<svg xmlns="http://www.w3.org/2000/svg" xmlns:xlink="http://www.w3.org/1999/xlink" width="2000" zoomAndPan="magnify" viewBox="0 0 1500 1499.999933" height="2000" preserveAspectRatio="xMidYMid meet" version="1.0"><defs><g/><clipPath id="ff9c205614"><path d="M 401.496094 233.246094 L 1098.503906 233.246094 L 1098.503906 983.753906 L 401.496094 983.753906 Z M 401.496094 233.246094 " clip-rule="nonzero"/></clipPath><clipPath id="7956059534"><path d="M 0.496094 0.246094 L 697.503906 0.246094 L 697.503906 750.753906 L 0.496094 750.753906 Z M 0.496094 0.246094 " clip-rule="nonzero"/></clipPath><clipPath id="d62619bc5c"><rect x="0" width="698" y="0" height="751"/></clipPath><clipPath id="6c4bf90fe0"><path d="M 401.496094 233.25 L 1098.246094 233.25 L 1098.246094 983.746094 L 401.496094 983.746094 Z M 401.496094 233.25 " clip-rule="nonzero"/></clipPath><clipPath id="96abd157d3"><rect x="0" width="638" y="0" height="60"/></clipPath><clipPath id="cc7054aa74"><rect x="0" width="602" y="0" height="131"/></clipPath><clipPath id="033fe68486"><path d="M 803.523438 506.191406 L 877.042969 506.191406 L 877.042969 955.3125 L 803.523438 955.3125 Z M 803.523438 506.191406 " clip-rule="nonzero"/></clipPath><clipPath id="cc0d18ea81"><path d="M 0.523438 0.191406 L 74.042969 0.191406 L 74.042969 449.3125 L 0.523438 449.3125 Z M 0.523438 0.191406 " clip-rule="nonzero"/></clipPath><clipPath id="2610bc5b01"><rect x="0" width="75" y="0" height="450"/></clipPath><clipPath id="0df42f6ff1"><path d="M 622.816406 617.109375 L 696.339844 617.109375 L 696.339844 954.597656 L 622.816406 954.597656 Z M 622.816406 617.109375 " clip-rule="nonzero"/></clipPath><clipPath id="0cd73a2b6c"><path d="M 0.816406 0.109375 L 74.339844 0.109375 L 74.339844 337.597656 L 0.816406 337.597656 Z M 0.816406 0.109375 " clip-rule="nonzero"/></clipPath><clipPath id="47eb7d1cb8"><rect x="0" width="75" y="0" height="338"/></clipPath><clipPath id="019608a431"><path d="M 522.234375 695.609375 L 595.753906 695.609375 L 595.753906 955.3125 L 522.234375 955.3125 Z M 522.234375 695.609375 " clip-rule="nonzero"/></clipPath><clipPath id="dd9ac35cca"><path d="M 0.234375 0.609375 L 73.753906 0.609375 L 73.753906 260.3125 L 0.234375 260.3125 Z M 0.234375 0.609375 " clip-rule="nonzero"/></clipPath><clipPath id="5d18a97da4"><rect x="0" width="74" y="0" height="261"/></clipPath><clipPath id="e6af57cc2e"><path d="M 904.109375 559.980469 L 977.628906 559.980469 L 977.628906 955.3125 L 904.109375 955.3125 Z M 904.109375 559.980469 " clip-rule="nonzero"/></clipPath><clipPath id="5948920cd1"><path d="M 0.109375 0.980469 L 73.628906 0.980469 L 73.628906 396.3125 L 0.109375 396.3125 Z M 0.109375 0.980469 " clip-rule="nonzero"/></clipPath><clipPath id="6b95c8a008"><rect x="0" width="74" y="0" height="397"/></clipPath><clipPath id="cf05811b7d"><path d="M 782 420 L 1073 420 L 1073 681 L 782 681 Z M 782 420 " clip-rule="nonzero"/></clipPath><clipPath id="5c2631eaf3"><path d="M 859.734375 420.832031 L 1072.578125 569.734375 L 995.058594 680.542969 L 782.214844 531.640625 Z M 859.734375 420.832031 " clip-rule="nonzero"/></clipPath><clipPath id="35a8891a93"><path d="M 0.160156 0.71875 L 290.800781 0.71875 L 290.800781 260.640625 L 0.160156 260.640625 Z M 0.160156 0.71875 " clip-rule="nonzero"/></clipPath><clipPath id="1d99ade1b8"><path d="M 77.734375 0.832031 L 290.578125 149.734375 L 213.058594 260.542969 L 0.214844 111.640625 Z M 77.734375 0.832031 " clip-rule="nonzero"/></clipPath><clipPath id="e92b4e2264"><rect x="0" width="291" y="0" height="261"/></clipPath><clipPath id="d71d6d0c74"><path d="M 421 518 L 702 518 L 702 768 L 421 768 Z M 421 518 " clip-rule="nonzero"/></clipPath><clipPath id="2f21ded151"><path d="M 421.765625 663.402344 L 629.316406 518.589844 L 701.988281 622.746094 L 494.433594 767.558594 Z M 421.765625 663.402344 " clip-rule="nonzero"/></clipPath><clipPath id="38873657cb"><path d="M 0.679688 0.398438 L 281 0.398438 L 281 249.761719 L 0.679688 249.761719 Z M 0.679688 0.398438 " clip-rule="nonzero"/></clipPath><clipPath id="9a692914ee"><path d="M 0.765625 145.402344 L 208.316406 0.589844 L 280.988281 104.746094 L 73.433594 249.558594 Z M 0.765625 145.402344 " clip-rule="nonzero"/></clipPath><clipPath id="b0382ae823"><rect x="0" width="281" y="0" height="250"/></clipPath><clipPath id="62928d321f"><path d="M 482 251 L 1044 251 L 1044 665 L 482 665 Z M 482 251 " clip-rule="nonzero"/></clipPath><clipPath id="ec51f22e26"><path d="M 482.597656 622.617188 L 1014.59375 251.4375 L 1043.980469 293.558594 L 511.988281 664.738281 Z M 482.597656 622.617188 " clip-rule="nonzero"/></clipPath><clipPath id="016705f2bf"><path d="M 0.398438 0.28125 L 562 0.28125 L 562 413.800781 L 0.398438 413.800781 Z M 0.398438 0.28125 " clip-rule="nonzero"/></clipPath><clipPath id="a71672b683"><path d="M 0.597656 371.617188 L 532.59375 0.4375 L 561.980469 42.558594 L 29.988281 413.738281 Z M 0.597656 371.617188 " clip-rule="nonzero"/></clipPath><clipPath id="9280d39ba0"><rect x="0" width="562" y="0" height="414"/></clipPath><clipPath id="63fa154ad7"><path d="M 485 644 L 537 644 L 537 686 L 485 686 Z M 485 644 " clip-rule="nonzero"/></clipPath><clipPath id="775b18e384"><path d="M 485.800781 677.394531 L 491.699219 644.164062 L 536.199219 652.066406 L 530.300781 685.292969 Z M 485.800781 677.394531 " clip-rule="nonzero"/></clipPath><clipPath id="9fd14c6a83"><path d="M 0.761719 0.160156 L 51.398438 0.160156 L 51.398438 41.441406 L 0.761719 41.441406 Z M 0.761719 0.160156 " clip-rule="nonzero"/></clipPath><clipPath id="164998dd4b"><path d="M 0.800781 33.394531 L 6.699219 0.164062 L 51.199219 8.066406 L 45.300781 41.292969 Z M 0.800781 33.394531 " clip-rule="nonzero"/></clipPath><clipPath id="3865d34f43"><rect x="0" width="52" y="0" height="42"/></clipPath><clipPath id="2cc4051977"><path d="M 569 590 L 617 590 L 617 645 L 569 645 Z M 569 590 " clip-rule="nonzero"/></clipPath><clipPath id="0a5fa77efa"><path d="M 601.003906 644.164062 L 569.375 632.390625 L 585.140625 590.035156 L 616.769531 601.804688 Z M 601.003906 644.164062 " clip-rule="nonzero"/></clipPath><clipPath id="c22c7c6eff"><path d="M 0.28125 0 L 47.800781 0 L 47.800781 54.398438 L 0.28125 54.398438 Z M 0.28125 0 " clip-rule="nonzero"/></clipPath><clipPath id="afe22240ec"><path d="M 32.003906 54.164062 L 0.375 42.390625 L 16.140625 0.0351562 L 47.769531 11.804688 Z M 32.003906 54.164062 " clip-rule="nonzero"/></clipPath><clipPath id="005cbf7a82"><rect x="0" width="48" y="0" height="55"/></clipPath><clipPath id="21021ce6a4"><path d="M 705.285156 506.183594 L 723.390625 506.183594 L 723.390625 582.679688 L 705.285156 582.679688 Z M 705.285156 506.183594 " clip-rule="nonzero"/></clipPath><clipPath id="55d095b264"><path d="M 0.285156 0.183594 L 18.390625 0.183594 L 18.390625 76.679688 L 0.285156 76.679688 Z M 0.285156 0.183594 " clip-rule="nonzero"/></clipPath><clipPath id="4c83bfd0b2"><rect x="0" width="19" y="0" height="77"/></clipPath><clipPath id="9a9d1ca702"><path d="M 585 270 L 1073 270 L 1073 633 L 585 633 Z M 585 270 " clip-rule="nonzero"/></clipPath><clipPath id="42410bdd32"><path d="M 585.179688 589.972656 L 1043.195312 270.410156 L 1072.582031 312.527344 L 614.570312 632.09375 Z M 585.179688 589.972656 " clip-rule="nonzero"/></clipPath><clipPath id="f3419d41be"><path d="M 0.121094 0.238281 L 487.800781 0.238281 L 487.800781 362.160156 L 0.121094 362.160156 Z M 0.121094 0.238281 " clip-rule="nonzero"/></clipPath><clipPath id="02894823b4"><path d="M 0.179688 319.972656 L 458.195312 0.410156 L 487.582031 42.527344 L 29.570312 362.09375 Z M 0.179688 319.972656 " clip-rule="nonzero"/></clipPath><clipPath id="de87c779be"><rect x="0" width="488" y="0" height="363"/></clipPath><clipPath id="80305784c6"><path d="M 974.925781 251.441406 L 1038.902344 251.441406 L 1038.902344 278.414062 L 974.925781 278.414062 Z M 974.925781 251.441406 " clip-rule="nonzero"/></clipPath><clipPath id="3b6e82c091"><path d="M 0.925781 0.441406 L 64.902344 0.441406 L 64.902344 27.414062 L 0.925781 27.414062 Z M 0.925781 0.441406 " clip-rule="nonzero"/></clipPath><clipPath id="072865a6e0"><rect x="0" width="65" y="0" height="28"/></clipPath><clipPath id="5bb43ca2e8"><path d="M 723.402344 455.945312 L 776.460938 455.945312 L 776.460938 955.3125 L 723.402344 955.3125 Z M 723.402344 455.945312 " clip-rule="nonzero"/></clipPath><clipPath id="4d6c262600"><path d="M 0.402344 0.945312 L 53.460938 0.945312 L 53.460938 500.3125 L 0.402344 500.3125 Z M 0.402344 0.945312 " clip-rule="nonzero"/></clipPath><clipPath id="733ddb4ea7"><rect x="0" width="54" y="0" height="501"/></clipPath><clipPath id="ba6a522c32"><path d="M 734.597656 470.460938 L 753.4375 470.460938 L 753.4375 955.3125 L 734.597656 955.3125 Z M 734.597656 470.460938 " clip-rule="nonzero"/></clipPath><clipPath id="b623d20733"><path d="M 0.597656 0.460938 L 19.4375 0.460938 L 19.4375 485.3125 L 0.597656 485.3125 Z M 0.597656 0.460938 " clip-rule="nonzero"/></clipPath><clipPath id="cd71054ff7"><rect x="0" width="20" y="0" height="486"/></clipPath><clipPath id="6f3d68cbad"><path d="M 718 440 L 773 440 L 773 489 L 718 489 Z M 718 440 " clip-rule="nonzero"/></clipPath><clipPath id="02f488e728"><path d="M 718.445312 469.53125 L 759.691406 440.753906 L 772.878906 459.65625 L 731.632812 488.433594 Z M 718.445312 469.53125 " clip-rule="nonzero"/></clipPath><clipPath id="486c85c830"><path d="M 0.320312 0.640625 L 55 0.640625 L 55 48.640625 L 0.320312 48.640625 Z M 0.320312 0.640625 " clip-rule="nonzero"/></clipPath><clipPath id="bccceca40f"><path d="M 0.445312 29.53125 L 41.691406 0.753906 L 54.878906 19.65625 L 13.632812 48.433594 Z M 0.445312 29.53125 " clip-rule="nonzero"/></clipPath><clipPath id="461c6ffc4e"><rect x="0" width="55" y="0" height="49"/></clipPath><clipPath id="e1b6fc9e62"><path d="M 640.734375 686.003906 L 659.578125 686.003906 L 659.578125 955.3125 L 640.734375 955.3125 Z M 640.734375 686.003906 " clip-rule="nonzero"/></clipPath><clipPath id="fc2b2079db"><path d="M 0.734375 0.00390625 L 19.578125 0.00390625 L 19.578125 269.3125 L 0.734375 269.3125 Z M 0.734375 0.00390625 " clip-rule="nonzero"/></clipPath><clipPath id="fa5b4637ce"><rect x="0" width="20" y="0" height="270"/></clipPath><clipPath id="e1df3a1a80"><path d="M 536.199219 759.019531 L 555.042969 759.019531 L 555.042969 955.3125 L 536.199219 955.3125 Z M 536.199219 759.019531 " clip-rule="nonzero"/></clipPath><clipPath id="c16fb8f1ab"><path d="M 0.199219 0.0195312 L 19.042969 0.0195312 L 19.042969 196.3125 L 0.199219 196.3125 Z M 0.199219 0.0195312 " clip-rule="nonzero"/></clipPath><clipPath id="8805efc5f2"><rect x="0" width="20" y="0" height="197"/></clipPath><clipPath id="9373a14cd2"><path d="M 840.285156 609.945312 L 859.128906 609.945312 L 859.128906 955.3125 L 840.285156 955.3125 Z M 840.285156 609.945312 " clip-rule="nonzero"/></clipPath><clipPath id="671d01a2f4"><path d="M 0.285156 0.945312 L 19.128906 0.945312 L 19.128906 346.3125 L 0.285156 346.3125 Z M 0.285156 0.945312 " clip-rule="nonzero"/></clipPath><clipPath id="9fb376e059"><rect x="0" width="20" y="0" height="347"/></clipPath><clipPath id="6dece1dac5"><path d="M 941.1875 686.003906 L 960.027344 686.003906 L 960.027344 955.3125 L 941.1875 955.3125 Z M 941.1875 686.003906 " clip-rule="nonzero"/></clipPath><clipPath id="e485333127"><path d="M 0.1875 0.00390625 L 19.027344 0.00390625 L 19.027344 269.3125 L 0.1875 269.3125 Z M 0.1875 0.00390625 " clip-rule="nonzero"/></clipPath><clipPath id="41c25fc2c8"><rect x="0" width="20" y="0" height="270"/></clipPath><clipPath id="6652e1178c"><path d="M 630 669 L 670 669 L 670 702 L 630 702 Z M 630 669 " clip-rule="nonzero"/></clipPath><clipPath id="c0c113c986"><path d="M 630.382812 691.585938 L 663.066406 669.054688 L 669.933594 679.011719 L 637.25 701.546875 Z M 630.382812 691.585938 " clip-rule="nonzero"/></clipPath><clipPath id="5e706497c9"><path d="M 0.238281 0 L 40 0 L 40 32.761719 L 0.238281 32.761719 Z M 0.238281 0 " clip-rule="nonzero"/></clipPath><clipPath id="c6b7d3603b"><path d="M 0.382812 22.585938 L 33.066406 0.0546875 L 39.933594 10.011719 L 7.25 32.546875 Z M 0.382812 22.585938 " clip-rule="nonzero"/></clipPath><clipPath id="a7f861a32b"><rect x="0" width="40" y="0" height="33"/></clipPath><clipPath id="9f526c4baf"><path d="M 525 741 L 566 741 L 566 774 L 525 774 Z M 525 741 " clip-rule="nonzero"/></clipPath><clipPath id="ca2fc8756d"><path d="M 525.847656 763.929688 L 558.53125 741.394531 L 565.398438 751.355469 L 532.714844 773.890625 Z M 525.847656 763.929688 " clip-rule="nonzero"/></clipPath><clipPath id="5b098d1ca5"><path d="M 0.839844 0.359375 L 40.441406 0.359375 L 40.441406 33 L 0.839844 33 Z M 0.839844 0.359375 " clip-rule="nonzero"/></clipPath><clipPath id="404ff90caa"><path d="M 0.847656 22.929688 L 33.53125 0.394531 L 40.398438 10.355469 L 7.714844 32.890625 Z M 0.847656 22.929688 " clip-rule="nonzero"/></clipPath><clipPath id="42c8d210ff"><rect x="0" width="41" y="0" height="33"/></clipPath><clipPath id="b15d6d596e"><path d="M 932 667 L 973 667 L 973 702 L 932 702 Z M 932 667 " clip-rule="nonzero"/></clipPath><clipPath id="81d9d1777e"><path d="M 940.890625 667.347656 L 972.515625 689.472656 L 964.066406 701.550781 L 932.441406 679.425781 Z M 940.890625 667.347656 " clip-rule="nonzero"/></clipPath><clipPath id="b4d7e88ea7"><path d="M 0.398438 0.199219 L 40.71875 0.199219 L 40.71875 34.761719 L 0.398438 34.761719 Z M 0.398438 0.199219 " clip-rule="nonzero"/></clipPath><clipPath id="8112c62ea6"><path d="M 8.890625 0.347656 L 40.515625 22.472656 L 32.066406 34.550781 L 0.441406 12.425781 Z M 8.890625 0.347656 " clip-rule="nonzero"/></clipPath><clipPath id="1bb47c0fad"><rect x="0" width="41" y="0" height="35"/></clipPath><clipPath id="6eb1258591"><path d="M 833 592 L 874 592 L 874 628 L 833 628 Z M 833 592 " clip-rule="nonzero"/></clipPath><clipPath id="f578bd87f3"><path d="M 842.027344 592.84375 L 873.652344 614.96875 L 865.199219 627.046875 L 833.578125 604.921875 Z M 842.027344 592.84375 " clip-rule="nonzero"/></clipPath><clipPath id="65e2275333"><path d="M 0.519531 0.800781 L 40.839844 0.800781 L 40.839844 35.121094 L 0.519531 35.121094 Z M 0.519531 0.800781 " clip-rule="nonzero"/></clipPath><clipPath id="624be0bdb9"><path d="M 9.027344 0.84375 L 40.652344 22.96875 L 32.199219 35.046875 L 0.578125 12.921875 Z M 9.027344 0.84375 " clip-rule="nonzero"/></clipPath><clipPath id="9cbe7204d9"><rect x="0" width="41" y="0" height="36"/></clipPath><clipPath id="98770865a7"><path d="M 966 554 L 983 554 L 983 571.648438 L 966 571.648438 Z M 966 554 " clip-rule="nonzero"/></clipPath><clipPath id="baf1dd34d3"><path d="M 965.710938 534.148438 L 984.460938 534.148438 L 984.460938 554 L 965.710938 554 Z M 965.710938 534.148438 " clip-rule="nonzero"/></clipPath><clipPath id="581a917a55"><path d="M 503.304688 955.3125 L 996.695312 955.3125 L 996.695312 962.765625 L 503.304688 962.765625 Z M 503.304688 955.3125 " clip-rule="nonzero"/></clipPath><clipPath id="2c4c3a06fc"><path d="M 0.304688 0.3125 L 493.695312 0.3125 L 493.695312 7.765625 L 0.304688 7.765625 Z M 0.304688 0.3125 " clip-rule="nonzero"/></clipPath><clipPath id="7e922c9895"><rect x="0" width="494" y="0" height="8"/></clipPath></defs><g clip-path="url(#ff9c205614)"><g transform="matrix(1, 0, 0, 1, 401, 233)"><g clip-path="url(#d62619bc5c)"><g clip-path="url(#7956059534)"><path fill="#1e243c" d="M 0.496094 0.246094 L 697.503906 0.246094 L 697.503906 751.707031 L 0.496094 751.707031 Z M 0.496094 0.246094 " fill-opacity="1" fill-rule="nonzero"/></g></g></g></g><g clip-path="url(#6c4bf90fe0)"><path stroke-linecap="butt" transform="matrix(0.75, 0, 0, 0.75, 401.496239, 233.250164)" fill="none" stroke-linejoin="miter" d="M -0.000193357 -0.000218546 L 929.328012 -0.000218546 L 929.328012 1000.661326 L -0.000193357 1000.661326 Z M -0.000193357 -0.000218546 " stroke="#ffffff" stroke-width="48" stroke-opacity="1" stroke-miterlimit="4"/></g><path stroke-linecap="butt" transform="matrix(0.75, 0, 0, 0.75, 1087.347132, 1241.983361)" fill="none" stroke-linejoin="miter" d="M 0.000699409 4.501352 L 63.740288 4.501352 " stroke="#c19f5d" stroke-width="9" stroke-opacity="1" stroke-miterlimit="4"/><path stroke-linecap="butt" transform="matrix(0.75, 0, 0, 0.75, 364.847404, 1241.983361)" fill="none" stroke-linejoin="miter" d="M 0.000335901 4.501352 L 63.739925 4.501352 " stroke="#c19f5d" stroke-width="9" stroke-opacity="1" stroke-miterlimit="4"/><g transform="matrix(1, 0, 0, 1, 441, 1209)"><g clip-path="url(#96abd157d3)"><g fill="#c19f5d" fill-opacity="1"><g transform="translate(1.057057, 46.46988)"><g><path d="M 0.890625 0 L 11.078125 -30.65625 L 18.296875 -30.65625 L 27.828125 0 L 20.9375 0 L 18.296875 -8.578125 L 7.640625 -8.578125 L 4.859375 0 Z M 8.578125 -11.546875 L 17.40625 -11.546875 L 13.203125 -25.984375 L 13.109375 -25.984375 Z M 8.578125 -11.546875 "/></g></g></g><g fill="#c19f5d" fill-opacity="1"><g transform="translate(48.825773, 46.46988)"><g><path d="M 15.890625 0.515625 C 11.265625 0.515625 7.742188 -0.875 5.328125 -3.65625 C 2.910156 -6.4375 1.703125 -10.25 1.703125 -15.09375 C 1.703125 -18.300781 2.25 -21.113281 3.34375 -23.53125 C 4.445312 -25.945312 6.050781 -27.816406 8.15625 -29.140625 C 10.257812 -30.460938 12.757812 -31.125 15.65625 -31.125 C 17.101562 -31.125 18.523438 -30.941406 19.921875 -30.578125 C 21.316406 -30.210938 22.523438 -29.816406 23.546875 -29.390625 C 24.578125 -28.972656 25.09375 -28.75 25.09375 -28.71875 L 24.421875 -25.28125 C 24.203125 -25.40625 23.664062 -25.644531 22.8125 -26 C 21.96875 -26.363281 20.957031 -26.71875 19.78125 -27.0625 C 18.601562 -27.414062 17.492188 -27.59375 16.453125 -27.59375 C 14.691406 -27.59375 13.257812 -27.195312 12.15625 -26.40625 C 11.0625 -25.625 10.238281 -24.335938 9.6875 -22.546875 C 9.132812 -20.753906 8.859375 -18.347656 8.859375 -15.328125 C 8.859375 -10.890625 9.503906 -7.726562 10.796875 -5.84375 C 12.085938 -3.957031 14.082031 -3.015625 16.78125 -3.015625 C 18.289062 -3.015625 19.617188 -3.335938 20.765625 -3.984375 C 21.921875 -4.628906 22.847656 -5.335938 23.546875 -6.109375 C 24.253906 -6.878906 24.609375 -7.3125 24.609375 -7.40625 L 26.6875 -5.140625 C 26.6875 -4.984375 26.269531 -4.414062 25.4375 -3.4375 C 24.601562 -2.46875 23.382812 -1.566406 21.78125 -0.734375 C 20.175781 0.0976562 18.210938 0.515625 15.890625 0.515625 Z M 15.890625 0.515625 "/></g></g></g><g fill="#c19f5d" fill-opacity="1"><g transform="translate(96.500165, 46.46988)"><g><path d="M 3.625 0 L 3.625 -30.65625 L 10.140625 -30.65625 L 10.140625 -17.265625 L 20.75 -17.265625 L 20.75 -30.65625 L 27.25 -30.65625 L 27.25 0 L 20.75 0 L 20.75 -13.953125 L 10.140625 -13.953125 L 10.140625 0 Z M 3.625 0 "/></g></g></g><g fill="#c19f5d" fill-opacity="1"><g transform="translate(147.899853, 46.46988)"><g><path d="M 15.5625 0.515625 C 11.125 0.515625 7.703125 -0.890625 5.296875 -3.703125 C 2.898438 -6.515625 1.703125 -10.375 1.703125 -15.28125 C 1.703125 -20.1875 2.898438 -24.050781 5.296875 -26.875 C 7.703125 -29.707031 11.125 -31.125 15.5625 -31.125 C 20.019531 -31.125 23.46875 -29.703125 25.90625 -26.859375 C 28.34375 -24.015625 29.5625 -20.15625 29.5625 -15.28125 C 29.5625 -10.40625 28.34375 -6.550781 25.90625 -3.71875 C 23.46875 -0.894531 20.019531 0.515625 15.5625 0.515625 Z M 15.5625 -2.828125 C 17.976562 -2.828125 19.710938 -3.804688 20.765625 -5.765625 C 21.828125 -7.734375 22.359375 -10.90625 22.359375 -15.28125 C 22.359375 -19.613281 21.820312 -22.769531 20.75 -24.75 C 19.675781 -26.738281 17.945312 -27.734375 15.5625 -27.734375 C 13.207031 -27.734375 11.5 -26.738281 10.4375 -24.75 C 9.382812 -22.769531 8.859375 -19.613281 8.859375 -15.28125 C 8.859375 -10.90625 9.378906 -7.734375 10.421875 -5.765625 C 11.460938 -3.804688 13.175781 -2.828125 15.5625 -2.828125 Z M 15.5625 -2.828125 "/></g></g></g><g fill="#c19f5d" fill-opacity="1"><g transform="translate(199.676784, 46.46988)"><g><path d="M 14.484375 0.515625 C 10.765625 0.515625 7.953125 -0.503906 6.046875 -2.546875 C 4.148438 -4.585938 3.203125 -7.445312 3.203125 -11.125 L 3.203125 -30.65625 L 9.765625 -30.65625 L 9.765625 -12.59375 C 9.765625 -9.195312 10.226562 -6.757812 11.15625 -5.28125 C 12.082031 -3.800781 13.535156 -3.0625 15.515625 -3.0625 C 17.617188 -3.0625 19.171875 -3.832031 20.171875 -5.375 C 21.179688 -6.914062 21.6875 -9.320312 21.6875 -12.59375 L 21.6875 -30.65625 L 25.703125 -30.65625 L 25.703125 -11.125 C 25.703125 -7.414062 24.820312 -4.546875 23.0625 -2.515625 C 21.300781 -0.492188 18.441406 0.515625 14.484375 0.515625 Z M 14.484375 0.515625 "/></g></g></g><g fill="#c19f5d" fill-opacity="1"><g transform="translate(249.143097, 46.46988)"><g><path d="M 3.625 -30.65625 L 13.0625 -30.65625 C 16.519531 -30.65625 19.222656 -29.8125 21.171875 -28.125 C 23.117188 -26.445312 24.09375 -24.082031 24.09375 -21.03125 C 24.09375 -19.050781 23.601562 -17.328125 22.625 -15.859375 C 21.65625 -14.398438 20.382812 -13.265625 18.8125 -12.453125 L 25.890625 0 L 18.390625 0 L 12.640625 -11.125 L 10.140625 -11.125 L 10.140625 0 L 3.625 0 Z M 12.546875 -14.234375 C 13.703125 -14.234375 14.601562 -14.429688 15.25 -14.828125 C 15.894531 -15.222656 16.359375 -15.890625 16.640625 -16.828125 C 16.929688 -17.773438 17.078125 -19.082031 17.078125 -20.75 C 17.078125 -23.195312 16.722656 -24.945312 16.015625 -26 C 15.304688 -27.0625 14.101562 -27.59375 12.40625 -27.59375 L 10.140625 -27.59375 L 10.140625 -14.234375 Z M 12.546875 -14.234375 "/></g></g></g><g fill="#c19f5d" fill-opacity="1"><g transform="translate(296.9118, 46.46988)"><g><path d="M 3.625 0 L 3.625 -30.65625 L 10.140625 -30.65625 L 10.140625 0 Z M 3.625 0 "/></g></g></g><g fill="#c19f5d" fill-opacity="1"><g transform="translate(331.241141, 46.46988)"><g/></g></g><g fill="#c19f5d" fill-opacity="1"><g transform="translate(363.778574, 46.46988)"><g><path d="M 8.90625 0 L 8.90625 -27.25 L 0.65625 -27.25 L 0.65625 -30.65625 L 23.671875 -30.65625 L 23.671875 -27.25 L 15.46875 -27.25 L 15.46875 0 Z M 8.90625 0 "/></g></g></g><g fill="#c19f5d" fill-opacity="1"><g transform="translate(408.623612, 46.46988)"><g><path d="M 15.5625 0.515625 C 11.125 0.515625 7.703125 -0.890625 5.296875 -3.703125 C 2.898438 -6.515625 1.703125 -10.375 1.703125 -15.28125 C 1.703125 -20.1875 2.898438 -24.050781 5.296875 -26.875 C 7.703125 -29.707031 11.125 -31.125 15.5625 -31.125 C 20.019531 -31.125 23.46875 -29.703125 25.90625 -26.859375 C 28.34375 -24.015625 29.5625 -20.15625 29.5625 -15.28125 C 29.5625 -10.40625 28.34375 -6.550781 25.90625 -3.71875 C 23.46875 -0.894531 20.019531 0.515625 15.5625 0.515625 Z M 15.5625 -2.828125 C 17.976562 -2.828125 19.710938 -3.804688 20.765625 -5.765625 C 21.828125 -7.734375 22.359375 -10.90625 22.359375 -15.28125 C 22.359375 -19.613281 21.820312 -22.769531 20.75 -24.75 C 19.675781 -26.738281 17.945312 -27.734375 15.5625 -27.734375 C 13.207031 -27.734375 11.5 -26.738281 10.4375 -24.75 C 9.382812 -22.769531 8.859375 -19.613281 8.859375 -15.28125 C 8.859375 -10.90625 9.378906 -7.734375 10.421875 -5.765625 C 11.460938 -3.804688 13.175781 -2.828125 15.5625 -2.828125 Z M 15.5625 -2.828125 "/></g></g></g><g fill="#c19f5d" fill-opacity="1"><g transform="translate(460.400531, 46.46988)"><g><path d="M 14.484375 0.515625 C 10.765625 0.515625 7.953125 -0.503906 6.046875 -2.546875 C 4.148438 -4.585938 3.203125 -7.445312 3.203125 -11.125 L 3.203125 -30.65625 L 9.765625 -30.65625 L 9.765625 -12.59375 C 9.765625 -9.195312 10.226562 -6.757812 11.15625 -5.28125 C 12.082031 -3.800781 13.535156 -3.0625 15.515625 -3.0625 C 17.617188 -3.0625 19.171875 -3.832031 20.171875 -5.375 C 21.179688 -6.914062 21.6875 -9.320312 21.6875 -12.59375 L 21.6875 -30.65625 L 25.703125 -30.65625 L 25.703125 -11.125 C 25.703125 -7.414062 24.820312 -4.546875 23.0625 -2.515625 C 21.300781 -0.492188 18.441406 0.515625 14.484375 0.515625 Z M 14.484375 0.515625 "/></g></g></g><g fill="#c19f5d" fill-opacity="1"><g transform="translate(509.866857, 46.46988)"><g><path d="M 3.625 0 L 3.625 -30.65625 L 22.25 -30.65625 L 22.25 -27.25 L 10.140625 -27.25 L 10.140625 -15.9375 L 20.703125 -15.9375 L 20.703125 -12.640625 L 10.140625 -12.640625 L 10.140625 0 Z M 3.625 0 "/></g></g></g><g fill="#c19f5d" fill-opacity="1"><g transform="translate(553.391542, 46.46988)"><g><path d="M 3.625 0 L 3.625 -30.65625 L 10.140625 -30.65625 L 10.140625 0 Z M 3.625 0 "/></g></g></g><g fill="#c19f5d" fill-opacity="1"><g transform="translate(587.720883, 46.46988)"><g><path d="M 3.625 0 L 3.625 -30.65625 L 10.140625 -30.65625 L 10.140625 -16.453125 L 12.921875 -18.484375 L 21.921875 -30.65625 L 26.453125 -30.65625 L 17.171875 -18.671875 L 28.625 0 L 20.375 0 L 12.171875 -13.765625 L 10.140625 -12.359375 L 10.140625 0 Z M 3.625 0 "/></g></g></g></g></g><g transform="matrix(1, 0, 0, 1, 449, 1051)"><g clip-path="url(#cc7054aa74)"><g fill="#ffffff" fill-opacity="1"><g transform="translate(0.817442, 102.775052)"><g><path d="M 66.4375 -13.8125 L 66.4375 0 L 8.828125 0 L 8.828125 -74.40625 L 65.046875 -74.40625 L 65.046875 -60.59375 L 25.9375 -60.59375 L 25.9375 -44.4375 L 60.484375 -44.4375 L 60.484375 -31.03125 L 25.9375 -31.03125 L 25.9375 -13.8125 Z M 66.4375 -13.8125 "/></g></g></g><g fill="#ffffff" fill-opacity="1"><g transform="translate(78.947005, 102.775052)"><g><path d="M 41.875 1.28125 C 31.25 1.28125 22.976562 -1.660156 17.0625 -7.546875 C 11.144531 -13.429688 8.1875 -21.828125 8.1875 -32.734375 L 8.1875 -74.40625 L 25.40625 -74.40625 L 25.40625 -33.375 C 25.40625 -20.050781 30.929688 -13.390625 41.984375 -13.390625 C 47.367188 -13.390625 51.476562 -15 54.3125 -18.21875 C 57.144531 -21.445312 58.5625 -26.5 58.5625 -33.375 L 58.5625 -74.40625 L 75.578125 -74.40625 L 75.578125 -32.734375 C 75.578125 -21.828125 72.617188 -13.429688 66.703125 -7.546875 C 60.785156 -1.660156 52.507812 1.28125 41.875 1.28125 Z M 41.875 1.28125 "/></g></g></g><g fill="#ffffff" fill-opacity="1"><g transform="translate(169.513411, 102.775052)"><g><path d="M 56.234375 0 L 41.875 -20.734375 L 26.046875 -20.734375 L 26.046875 0 L 8.828125 0 L 8.828125 -74.40625 L 41.03125 -74.40625 C 47.625 -74.40625 53.347656 -73.304688 58.203125 -71.109375 C 63.054688 -68.910156 66.789062 -65.789062 69.40625 -61.75 C 72.03125 -57.71875 73.34375 -52.9375 73.34375 -47.40625 C 73.34375 -41.882812 72.015625 -37.117188 69.359375 -33.109375 C 66.703125 -29.109375 62.925781 -26.046875 58.03125 -23.921875 L 74.734375 0 Z M 55.90625 -47.40625 C 55.90625 -51.59375 54.554688 -54.800781 51.859375 -57.03125 C 49.171875 -59.257812 45.242188 -60.375 40.078125 -60.375 L 26.046875 -60.375 L 26.046875 -34.4375 L 40.078125 -34.4375 C 45.242188 -34.4375 49.171875 -35.570312 51.859375 -37.84375 C 54.554688 -40.113281 55.90625 -43.300781 55.90625 -47.40625 Z M 55.90625 -47.40625 "/></g></g></g><g fill="#ffffff" fill-opacity="1"><g transform="translate(254.44602, 102.775052)"><g><path d="M 8.828125 -74.40625 L 26.046875 -74.40625 L 26.046875 -14.03125 L 63.359375 -14.03125 L 63.359375 0 L 8.828125 0 Z M 8.828125 -74.40625 "/></g></g></g><g fill="#ffffff" fill-opacity="1"><g transform="translate(325.453652, 102.775052)"><g/></g></g><g fill="#ffffff" fill-opacity="1"><g transform="translate(362.339654, 102.775052)"><g><path d="M 66.4375 -13.8125 L 66.4375 0 L 8.828125 0 L 8.828125 -74.40625 L 65.046875 -74.40625 L 65.046875 -60.59375 L 25.9375 -60.59375 L 25.9375 -44.4375 L 60.484375 -44.4375 L 60.484375 -31.03125 L 25.9375 -31.03125 L 25.9375 -13.8125 Z M 66.4375 -13.8125 "/></g></g></g><g fill="#ffffff" fill-opacity="1"><g transform="translate(440.469218, 102.775052)"><g><path d="M 24.234375 -60.375 L 0.421875 -60.375 L 0.421875 -74.40625 L 65.265625 -74.40625 L 65.265625 -60.375 L 41.453125 -60.375 L 41.453125 0 L 24.234375 0 Z M 24.234375 -60.375 "/></g></g></g><g fill="#ffffff" fill-opacity="1"><g transform="translate(512.964983, 102.775052)"><g><path d="M 63.453125 -38.6875 C 67.710938 -37.34375 71.046875 -35.09375 73.453125 -31.9375 C 75.859375 -28.789062 77.0625 -24.910156 77.0625 -20.296875 C 77.0625 -13.773438 74.523438 -8.757812 69.453125 -5.25 C 64.390625 -1.75 57.003906 0 47.296875 0 L 8.828125 0 L 8.828125 -74.40625 L 45.171875 -74.40625 C 54.242188 -74.40625 61.207031 -72.664062 66.0625 -69.1875 C 70.914062 -65.71875 73.34375 -61.007812 73.34375 -55.0625 C 73.34375 -51.445312 72.472656 -48.222656 70.734375 -45.390625 C 69.003906 -42.554688 66.578125 -40.320312 63.453125 -38.6875 Z M 25.9375 -61.4375 L 25.9375 -43.90625 L 43.046875 -43.90625 C 47.296875 -43.90625 50.519531 -44.644531 52.71875 -46.125 C 54.914062 -47.613281 56.015625 -49.8125 56.015625 -52.71875 C 56.015625 -55.625 54.914062 -57.800781 52.71875 -59.25 C 50.519531 -60.707031 47.296875 -61.4375 43.046875 -61.4375 Z M 46.03125 -12.96875 C 50.5625 -12.96875 53.976562 -13.710938 56.28125 -15.203125 C 58.582031 -16.691406 59.734375 -18.992188 59.734375 -22.109375 C 59.734375 -28.273438 55.164062 -31.359375 46.03125 -31.359375 L 25.9375 -31.359375 L 25.9375 -12.96875 Z M 46.03125 -12.96875 "/></g></g></g></g></g><g clip-path="url(#033fe68486)"><g transform="matrix(1, 0, 0, 1, 803, 506)"><g clip-path="url(#2610bc5b01)"><g clip-path="url(#cc0d18ea81)"><path fill="#ffffff" d="M 0.523438 0.191406 L 74.046875 0.191406 L 74.046875 449.355469 L 0.523438 449.355469 Z M 0.523438 0.191406 " fill-opacity="1" fill-rule="nonzero"/></g></g></g></g><g clip-path="url(#0df42f6ff1)"><g transform="matrix(1, 0, 0, 1, 622, 617)"><g clip-path="url(#47eb7d1cb8)"><g clip-path="url(#0cd73a2b6c)"><path fill="#ffffff" d="M 0.816406 0.109375 L 74.339844 0.109375 L 74.339844 337.554688 L 0.816406 337.554688 Z M 0.816406 0.109375 " fill-opacity="1" fill-rule="nonzero"/></g></g></g></g><g clip-path="url(#019608a431)"><g transform="matrix(1, 0, 0, 1, 522, 695)"><g clip-path="url(#5d18a97da4)"><g clip-path="url(#dd9ac35cca)"><path fill="#ffffff" d="M 0.234375 0.609375 L 73.753906 0.609375 L 73.753906 260.230469 L 0.234375 260.230469 Z M 0.234375 0.609375 " fill-opacity="1" fill-rule="nonzero"/></g></g></g></g><g clip-path="url(#e6af57cc2e)"><g transform="matrix(1, 0, 0, 1, 904, 559)"><g clip-path="url(#6b95c8a008)"><g clip-path="url(#5948920cd1)"><path fill="#ffffff" d="M 0.109375 0.980469 L 73.628906 0.980469 L 73.628906 396.441406 L 0.109375 396.441406 Z M 0.109375 0.980469 " fill-opacity="1" fill-rule="nonzero"/></g></g></g></g><g clip-path="url(#cf05811b7d)"><g clip-path="url(#5c2631eaf3)"><g transform="matrix(1, 0, 0, 1, 782, 420)"><g clip-path="url(#e92b4e2264)"><g clip-path="url(#35a8891a93)"><g clip-path="url(#1d99ade1b8)"><path fill="#1e243c" d="M 77.734375 0.832031 L 290.695312 149.816406 L 213.171875 260.625 L 0.214844 111.640625 Z M 77.734375 0.832031 " fill-opacity="1" fill-rule="nonzero"/></g></g></g></g></g></g><g clip-path="url(#d71d6d0c74)"><g clip-path="url(#2f21ded151)"><g transform="matrix(1, 0, 0, 1, 421, 518)"><g clip-path="url(#b0382ae823)"><g clip-path="url(#38873657cb)"><g clip-path="url(#9a692914ee)"><path fill="#1e243c" d="M 0.765625 145.402344 L 208.261719 0.628906 L 280.933594 104.785156 L 73.433594 249.558594 Z M 0.765625 145.402344 " fill-opacity="1" fill-rule="nonzero"/></g></g></g></g></g></g><g clip-path="url(#62928d321f)"><g clip-path="url(#ec51f22e26)"><g transform="matrix(1, 0, 0, 1, 482, 251)"><g clip-path="url(#9280d39ba0)"><g clip-path="url(#016705f2bf)"><g clip-path="url(#a71672b683)"><path fill="#c19f5d" d="M 0.597656 371.617188 L 532.53125 0.480469 L 561.917969 42.601562 L 29.988281 413.738281 Z M 0.597656 371.617188 " fill-opacity="1" fill-rule="nonzero"/></g></g></g></g></g></g><g clip-path="url(#63fa154ad7)"><g clip-path="url(#775b18e384)"><g transform="matrix(1, 0, 0, 1, 485, 644)"><g clip-path="url(#3865d34f43)"><g clip-path="url(#9fd14c6a83)"><g clip-path="url(#164998dd4b)"><path fill="#1e243c" d="M 0.800781 33.394531 L 6.699219 0.164062 L 51.222656 8.070312 L 45.324219 41.296875 Z M 0.800781 33.394531 " fill-opacity="1" fill-rule="nonzero"/></g></g></g></g></g></g><g clip-path="url(#2cc4051977)"><g clip-path="url(#0a5fa77efa)"><g transform="matrix(1, 0, 0, 1, 569, 590)"><g clip-path="url(#005cbf7a82)"><g clip-path="url(#c22c7c6eff)"><g clip-path="url(#afe22240ec)"><path fill="#1e243c" d="M 32.003906 54.164062 L 0.375 42.390625 L 16.148438 0.015625 L 47.777344 11.785156 Z M 32.003906 54.164062 " fill-opacity="1" fill-rule="nonzero"/></g></g></g></g></g></g><g clip-path="url(#21021ce6a4)"><g transform="matrix(1, 0, 0, 1, 705, 506)"><g clip-path="url(#4c83bfd0b2)"><g clip-path="url(#55d095b264)"><path fill="#1e243c" d="M 18.390625 76.679688 L 0.285156 76.679688 L 0.285156 0.160156 L 18.390625 0.160156 Z M 18.390625 76.679688 " fill-opacity="1" fill-rule="nonzero"/></g></g></g></g><g clip-path="url(#9a9d1ca702)"><g clip-path="url(#42410bdd32)"><g transform="matrix(1, 0, 0, 1, 585, 270)"><g clip-path="url(#de87c779be)"><g clip-path="url(#f3419d41be)"><g clip-path="url(#02894823b4)"><path fill="#1e243c" d="M 0.179688 319.972656 L 458.238281 0.378906 L 487.625 42.5 L 29.570312 362.09375 Z M 0.179688 319.972656 " fill-opacity="1" fill-rule="nonzero"/></g></g></g></g></g></g><g clip-path="url(#80305784c6)"><g transform="matrix(1, 0, 0, 1, 974, 251)"><g clip-path="url(#072865a6e0)"><g clip-path="url(#3b6e82c091)"><path fill="#1e243c" d="M 0.925781 0.441406 L 64.882812 0.441406 L 64.882812 27.414062 L 0.925781 27.414062 Z M 0.925781 0.441406 " fill-opacity="1" fill-rule="nonzero"/></g></g></g></g><g clip-path="url(#5bb43ca2e8)"><g transform="matrix(1, 0, 0, 1, 723, 455)"><g clip-path="url(#733ddb4ea7)"><g clip-path="url(#4d6c262600)"><path fill="#c19f5d" d="M 0.402344 0.945312 L 53.460938 0.945312 L 53.460938 500.234375 L 0.402344 500.234375 Z M 0.402344 0.945312 " fill-opacity="1" fill-rule="nonzero"/></g></g></g></g><g clip-path="url(#ba6a522c32)"><g transform="matrix(1, 0, 0, 1, 734, 470)"><g clip-path="url(#cd71054ff7)"><g clip-path="url(#b623d20733)"><path fill="#1e243c" d="M 0.597656 0.460938 L 19.4375 0.460938 L 19.4375 485.28125 L 0.597656 485.28125 Z M 0.597656 0.460938 " fill-opacity="1" fill-rule="nonzero"/></g></g></g></g><g clip-path="url(#6f3d68cbad)"><g clip-path="url(#02f488e728)"><g transform="matrix(1, 0, 0, 1, 718, 440)"><g clip-path="url(#461c6ffc4e)"><g clip-path="url(#486c85c830)"><g clip-path="url(#bccceca40f)"><path fill="#c19f5d" d="M 0.445312 29.53125 L 41.722656 0.730469 L 54.914062 19.632812 L 13.632812 48.433594 Z M 0.445312 29.53125 " fill-opacity="1" fill-rule="nonzero"/></g></g></g></g></g></g><path stroke-linecap="butt" transform="matrix(0.000000001309, -0.75, 0.75, 0.000000001309, 973.799469, 534.310542)" fill="none" stroke-linejoin="miter" d="M 0.00259764 1.501749 L 303.617207 1.501749 " stroke="#c19f5d" stroke-width="3" stroke-opacity="1" stroke-miterlimit="4"/><g clip-path="url(#e1b6fc9e62)"><g transform="matrix(1, 0, 0, 1, 640, 686)"><g clip-path="url(#fa5b4637ce)"><g clip-path="url(#fc2b2079db)"><path fill="#1e243c" d="M 0.734375 0.00390625 L 19.578125 0.00390625 L 19.578125 269.316406 L 0.734375 269.316406 Z M 0.734375 0.00390625 " fill-opacity="1" fill-rule="nonzero"/></g></g></g></g><g clip-path="url(#e1df3a1a80)"><g transform="matrix(1, 0, 0, 1, 536, 759)"><g clip-path="url(#8805efc5f2)"><g clip-path="url(#c16fb8f1ab)"><path fill="#1e243c" d="M 0.199219 0.0195312 L 19.042969 0.0195312 L 19.042969 196.320312 L 0.199219 196.320312 Z M 0.199219 0.0195312 " fill-opacity="1" fill-rule="nonzero"/></g></g></g></g><g clip-path="url(#9373a14cd2)"><g transform="matrix(1, 0, 0, 1, 840, 609)"><g clip-path="url(#9fb376e059)"><g clip-path="url(#671d01a2f4)"><path fill="#1e243c" d="M 0.285156 0.945312 L 19.128906 0.945312 L 19.128906 346.289062 L 0.285156 346.289062 Z M 0.285156 0.945312 " fill-opacity="1" fill-rule="nonzero"/></g></g></g></g><g clip-path="url(#6dece1dac5)"><g transform="matrix(1, 0, 0, 1, 941, 686)"><g clip-path="url(#41c25fc2c8)"><g clip-path="url(#e485333127)"><path fill="#1e243c" d="M 0.1875 0.00390625 L 19.027344 0.00390625 L 19.027344 269.316406 L 0.1875 269.316406 Z M 0.1875 0.00390625 " fill-opacity="1" fill-rule="nonzero"/></g></g></g></g><path stroke-linecap="butt" transform="matrix(0.75, 0, 0, 0.75, 486.967263, 945.741451)" fill="none" stroke-linejoin="miter" d="M 0.00198213 15.500984 L 701.418709 15.500984 " stroke="#ffffff" stroke-width="31" stroke-opacity="1" stroke-miterlimit="4"/><g clip-path="url(#6652e1178c)"><g clip-path="url(#c0c113c986)"><g transform="matrix(1, 0, 0, 1, 630, 669)"><g clip-path="url(#a7f861a32b)"><g clip-path="url(#5e706497c9)"><g clip-path="url(#c6b7d3603b)"><path fill="#ffffff" d="M 0.382812 22.585938 L 33.0625 0.0546875 L 39.929688 10.015625 L 7.25 32.546875 Z M 0.382812 22.585938 " fill-opacity="1" fill-rule="nonzero"/></g></g></g></g></g></g><g clip-path="url(#9f526c4baf)"><g clip-path="url(#ca2fc8756d)"><g transform="matrix(1, 0, 0, 1, 525, 741)"><g clip-path="url(#42c8d210ff)"><g clip-path="url(#5b098d1ca5)"><g clip-path="url(#404ff90caa)"><path fill="#ffffff" d="M 0.847656 22.929688 L 33.527344 0.398438 L 40.394531 10.359375 L 7.714844 32.890625 Z M 0.847656 22.929688 " fill-opacity="1" fill-rule="nonzero"/></g></g></g></g></g></g><g clip-path="url(#b15d6d596e)"><g clip-path="url(#81d9d1777e)"><g transform="matrix(1, 0, 0, 1, 932, 667)"><g clip-path="url(#1bb47c0fad)"><g clip-path="url(#b4d7e88ea7)"><g clip-path="url(#8112c62ea6)"><path fill="#ffffff" d="M 8.890625 0.347656 L 40.507812 22.464844 L 32.054688 34.542969 L 0.441406 12.425781 Z M 8.890625 0.347656 " fill-opacity="1" fill-rule="nonzero"/></g></g></g></g></g></g><g clip-path="url(#6eb1258591)"><g clip-path="url(#f578bd87f3)"><g transform="matrix(1, 0, 0, 1, 833, 592)"><g clip-path="url(#9cbe7204d9)"><g clip-path="url(#65e2275333)"><g clip-path="url(#624be0bdb9)"><path fill="#ffffff" d="M 9.027344 0.84375 L 40.640625 22.960938 L 32.191406 35.039062 L 0.578125 12.921875 Z M 9.027344 0.84375 " fill-opacity="1" fill-rule="nonzero"/></g></g></g></g></g></g><g clip-path="url(#98770865a7)"><path fill="#c19f5d" d="M 967.796875 561.269531 C 970.066406 561.574219 970.898438 564.269531 971.675781 565.5625 C 972.714844 567.304688 974.851562 567.84375 976.433594 566.742188 C 977.992188 565.65625 978.363281 563.292969 976.957031 561.855469 C 975.777344 560.652344 974.695312 559.515625 973.699219 557.988281 C 972.765625 559.527344 972.261719 560.980469 971.574219 562.519531 C 971.472656 562.757812 971.105469 562.773438 970.945312 562.664062 C 970.789062 562.558594 970.539062 562.332031 970.597656 561.972656 L 971.382812 556.941406 C 971.460938 556.464844 971.679688 556.039062 972.160156 555.886719 C 973.199219 555.550781 972.4375 554.355469 972.859375 554.324219 C 974.21875 554.21875 975.464844 554.234375 976.839844 554.304688 C 976.773438 556.769531 979.308594 557.191406 981.195312 559.46875 C 983.902344 562.734375 983.402344 567.660156 980.0625 570.296875 C 978.074219 571.867188 975.484375 572.289062 973.085938 571.628906 C 969.976562 570.769531 968.039062 568.109375 967.898438 564.910156 C 967.851562 563.875 967.578125 562.976562 967.054688 562.121094 C 966.828125 561.75 967.203125 561.191406 967.796875 561.269531 Z M 967.796875 561.269531 " fill-opacity="1" fill-rule="nonzero"/></g><g clip-path="url(#baf1dd34d3)"><path fill="#c19f5d" d="M 978.75 553.214844 L 971.253906 553.230469 C 970.601562 553.234375 970.1875 552.808594 969.988281 552.222656 L 965.824219 540.027344 C 965.609375 539.402344 965.703125 538.917969 966.046875 538.378906 L 970.015625 532.191406 C 970.246094 531.828125 970.542969 531.390625 971.035156 531.390625 L 978.679688 531.367188 C 979.082031 531.363281 979.40625 531.570312 979.605469 531.890625 L 983.972656 538.757812 C 984.226562 539.15625 984.128906 539.691406 983.980469 540.125 L 979.738281 552.496094 C 979.523438 552.820312 979.300781 553.214844 978.75 553.214844 Z M 976.410156 539.25 C 976.410156 538.410156 975.730469 537.730469 974.890625 537.730469 C 974.046875 537.730469 973.367188 538.410156 973.367188 539.25 C 973.367188 540.089844 974.046875 540.773438 974.890625 540.773438 C 975.730469 540.773438 976.410156 540.089844 976.410156 539.25 Z M 976.40625 548.9375 C 976.40625 548.105469 975.730469 547.433594 974.902344 547.433594 C 974.070312 547.433594 973.398438 548.105469 973.398438 548.9375 C 973.398438 549.765625 974.070312 550.4375 974.902344 550.4375 C 975.730469 550.4375 976.40625 549.765625 976.40625 548.9375 Z M 976.40625 548.9375 " fill-opacity="1" fill-rule="nonzero"/></g><g clip-path="url(#581a917a55)"><g transform="matrix(1, 0, 0, 1, 503, 955)"><g clip-path="url(#7e922c9895)"><g clip-path="url(#2c4c3a06fc)"><path fill="#1e243c" d="M 0.304688 0.3125 L 493.691406 0.3125 L 493.691406 7.765625 L 0.304688 7.765625 Z M 0.304688 0.3125 " fill-opacity="1" fill-rule="nonzero"/></g></g></g></g></svg>