<svg xmlns="http://www.w3.org/2000/svg" xmlns:xlink="http://www.w3.org/1999/xlink" width="2000" zoomAndPan="magnify" viewBox="0 0 1500 1499.999933" height="2000" preserveAspectRatio="xMidYMid meet" version="1.0"><defs><g/><clipPath id="e490a12b3c"><rect x="0" width="796" y="0" height="165"/></clipPath><clipPath id="84f2311d72"><rect x="0" width="591" y="0" height="56"/></clipPath><clipPath id="67f9a4c628"><path d="M 352.714844 668.5625 L 411.238281 668.5625 L 411.238281 1026.058594 L 352.714844 1026.058594 Z M 352.714844 668.5625 " clip-rule="nonzero"/></clipPath><clipPath id="1a6eafbd0b"><path d="M 0.714844 0.5625 L 59.238281 0.5625 L 59.238281 358.058594 L 0.714844 358.058594 Z M 0.714844 0.5625 " clip-rule="nonzero"/></clipPath><clipPath id="fd703cadea"><rect x="0" width="60" y="0" height="359"/></clipPath><clipPath id="8646ec2d03"><path d="M 208.875 756.851562 L 267.394531 756.851562 L 267.394531 1025.492188 L 208.875 1025.492188 Z M 208.875 756.851562 " clip-rule="nonzero"/></clipPath><clipPath id="6ccf067ad8"><path d="M 0.875 0.851562 L 59.394531 0.851562 L 59.394531 269.492188 L 0.875 269.492188 Z M 0.875 0.851562 " clip-rule="nonzero"/></clipPath><clipPath id="73317a7caf"><rect x="0" width="60" y="0" height="270"/></clipPath><clipPath id="a2da5823aa"><path d="M 128.808594 819.339844 L 187.332031 819.339844 L 187.332031 1026.058594 L 128.808594 1026.058594 Z M 128.808594 819.339844 " clip-rule="nonzero"/></clipPath><clipPath id="227db356f4"><path d="M 0.808594 0.339844 L 59.332031 0.339844 L 59.332031 207 L 0.808594 207 Z M 0.808594 0.339844 " clip-rule="nonzero"/></clipPath><clipPath id="6bf746f395"><rect x="0" width="60" y="0" height="208"/></clipPath><clipPath id="5aeed041f8"><path d="M 432.78125 711.378906 L 491.300781 711.378906 L 491.300781 1026.058594 L 432.78125 1026.058594 Z M 432.78125 711.378906 " clip-rule="nonzero"/></clipPath><clipPath id="71cd02735e"><path d="M 0.78125 0.378906 L 59.300781 0.378906 L 59.300781 315.058594 L 0.78125 315.058594 Z M 0.78125 0.378906 " clip-rule="nonzero"/></clipPath><clipPath id="33dcf5000f"><rect x="0" width="60" y="0" height="316"/></clipPath><clipPath id="27e827e6bc"><path d="M 335 600 L 567 600 L 567 808 L 335 808 Z M 335 600 " clip-rule="nonzero"/></clipPath><clipPath id="36059051cd"><path d="M 397.457031 600.617188 L 566.882812 719.144531 L 505.175781 807.347656 L 335.753906 688.820312 Z M 397.457031 600.617188 " clip-rule="nonzero"/></clipPath><clipPath id="225cdcd9ec"><path d="M 0.519531 0.480469 L 232 0.480469 L 232 207.359375 L 0.519531 207.359375 Z M 0.519531 0.480469 " clip-rule="nonzero"/></clipPath><clipPath id="06c6b61cb8"><path d="M 62.457031 0.617188 L 231.882812 119.144531 L 170.175781 207.347656 L 0.753906 88.820312 Z M 62.457031 0.617188 " clip-rule="nonzero"/></clipPath><clipPath id="515c973e7e"><rect x="0" width="232" y="0" height="208"/></clipPath><clipPath id="a2b0bba7b9"><path d="M 48 678 L 272 678 L 272 877 L 48 877 Z M 48 678 " clip-rule="nonzero"/></clipPath><clipPath id="1210913ae2"><path d="M 48.835938 793.703125 L 214.046875 678.433594 L 271.894531 761.339844 L 106.683594 876.609375 Z M 48.835938 793.703125 " clip-rule="nonzero"/></clipPath><clipPath id="c573ca235d"><path d="M 0.71875 0.238281 L 223.921875 0.238281 L 223.921875 198.71875 L 0.71875 198.71875 Z M 0.71875 0.238281 " clip-rule="nonzero"/></clipPath><clipPath id="46ee413a82"><path d="M 0.835938 115.703125 L 166.046875 0.433594 L 223.894531 83.339844 L 58.683594 198.609375 Z M 0.835938 115.703125 " clip-rule="nonzero"/></clipPath><clipPath id="3b0d36424a"><rect x="0" width="224" y="0" height="199"/></clipPath><clipPath id="a89feeb27e"><path d="M 97 463 L 547 463 L 547 795 L 97 795 Z M 97 463 " clip-rule="nonzero"/></clipPath><clipPath id="4f5781fa0e"><path d="M 97.261719 761.238281 L 523.34375 463.953125 L 546.734375 497.480469 L 120.652344 794.765625 Z M 97.261719 761.238281 " clip-rule="nonzero"/></clipPath><clipPath id="d30f88b977"><path d="M 0.199219 0.921875 L 449.960938 0.921875 L 449.960938 331.878906 L 0.199219 331.878906 Z M 0.199219 0.921875 " clip-rule="nonzero"/></clipPath><clipPath id="3cbfcd666b"><path d="M 0.261719 298.238281 L 426.34375 0.953125 L 449.734375 34.480469 L 23.652344 331.765625 Z M 0.261719 298.238281 " clip-rule="nonzero"/></clipPath><clipPath id="f0446c3682"><rect x="0" width="450" y="0" height="332"/></clipPath><clipPath id="c12ef95308"><path d="M 99 778 L 140 778 L 140 812 L 99 812 Z M 99 778 " clip-rule="nonzero"/></clipPath><clipPath id="8fefa16a0c"><path d="M 99.8125 804.839844 L 104.507812 778.390625 L 139.929688 784.675781 L 135.234375 811.128906 Z M 99.8125 804.839844 " clip-rule="nonzero"/></clipPath><clipPath id="36ea5ad36c"><path d="M 0.601562 0.320312 L 41 0.320312 L 41 33.199219 L 0.601562 33.199219 Z M 0.601562 0.320312 " clip-rule="nonzero"/></clipPath><clipPath id="6b824b7abe"><path d="M 0.8125 26.839844 L 5.507812 0.390625 L 40.929688 6.675781 L 36.234375 33.128906 Z M 0.8125 26.839844 " clip-rule="nonzero"/></clipPath><clipPath id="c4785e0c40"><rect x="0" width="41" y="0" height="34"/></clipPath><clipPath id="432fa46a8f"><path d="M 166 735 L 205 735 L 205 779 L 166 779 Z M 166 735 " clip-rule="nonzero"/></clipPath><clipPath id="d08070bce4"><path d="M 191.515625 778.386719 L 166.335938 769.015625 L 178.886719 735.296875 L 204.0625 744.667969 Z M 191.515625 778.386719 " clip-rule="nonzero"/></clipPath><clipPath id="caf9e30e3b"><path d="M 0.320312 0.121094 L 38.238281 0.121094 L 38.238281 43.558594 L 0.320312 43.558594 Z M 0.320312 0.121094 " clip-rule="nonzero"/></clipPath><clipPath id="6a8af51dd7"><path d="M 25.515625 43.386719 L 0.335938 34.015625 L 12.886719 0.296875 L 38.0625 9.667969 Z M 25.515625 43.386719 " clip-rule="nonzero"/></clipPath><clipPath id="793cdf80f3"><rect x="0" width="39" y="0" height="44"/></clipPath><clipPath id="51c462ede3"><path d="M 274.519531 668.5625 L 288.929688 668.5625 L 288.929688 729.453125 L 274.519531 729.453125 Z M 274.519531 668.5625 " clip-rule="nonzero"/></clipPath><clipPath id="2bb897e98a"><path d="M 0.519531 0.5625 L 14.929688 0.5625 L 14.929688 61.453125 L 0.519531 61.453125 Z M 0.519531 0.5625 " clip-rule="nonzero"/></clipPath><clipPath id="b94b4864f0"><rect x="0" width="15" y="0" height="62"/></clipPath><clipPath id="9ee761f9a7"><path d="M 178 480 L 567 480 L 567 769 L 178 769 Z M 178 480 " clip-rule="nonzero"/></clipPath><clipPath id="393b64013a"><path d="M 178.914062 735.25 L 543.492188 480.878906 L 566.886719 514.40625 L 202.308594 768.777344 Z M 178.914062 735.25 " clip-rule="nonzero"/></clipPath><clipPath id="911141defb"><path d="M 0.800781 0.71875 L 389 0.71875 L 389 288.960938 L 0.800781 288.960938 Z M 0.800781 0.71875 " clip-rule="nonzero"/></clipPath><clipPath id="5a7a14af4c"><path d="M 0.914062 255.25 L 365.492188 0.878906 L 388.886719 34.40625 L 24.308594 288.777344 Z M 0.914062 255.25 " clip-rule="nonzero"/></clipPath><clipPath id="a7c627062f"><rect x="0" width="389" y="0" height="289"/></clipPath><clipPath id="0c4fe2930c"><path d="M 491.300781 463.953125 L 539.355469 463.953125 L 539.355469 485.425781 L 491.300781 485.425781 Z M 491.300781 463.953125 " clip-rule="nonzero"/></clipPath><clipPath id="360e98ae48"><path d="M 0.300781 0.953125 L 48.355469 0.953125 L 48.355469 22.425781 L 0.300781 22.425781 Z M 0.300781 0.953125 " clip-rule="nonzero"/></clipPath><clipPath id="8a08ab6528"><rect x="0" width="49" y="0" height="23"/></clipPath><clipPath id="d3088711f6"><path d="M 288.9375 628.566406 L 331.171875 628.566406 L 331.171875 1026.058594 L 288.9375 1026.058594 Z M 288.9375 628.566406 " clip-rule="nonzero"/></clipPath><clipPath id="dc26338108"><path d="M 0.9375 0.566406 L 43.171875 0.566406 L 43.171875 398 L 0.9375 398 Z M 0.9375 0.566406 " clip-rule="nonzero"/></clipPath><clipPath id="5c5fa30d3f"><rect x="0" width="44" y="0" height="399"/></clipPath><clipPath id="fa6b280d4f"><path d="M 297.847656 640.121094 L 312.847656 640.121094 L 312.847656 1026.058594 L 297.847656 1026.058594 Z M 297.847656 640.121094 " clip-rule="nonzero"/></clipPath><clipPath id="5e5d52a3ef"><path d="M 0.847656 0.121094 L 15.847656 0.121094 L 15.847656 386.058594 L 0.847656 386.058594 Z M 0.847656 0.121094 " clip-rule="nonzero"/></clipPath><clipPath id="7e0cdfd4c4"><rect x="0" width="16" y="0" height="387"/></clipPath><clipPath id="15bd735767"><path d="M 284 616 L 329 616 L 329 655 L 284 655 Z M 284 616 " clip-rule="nonzero"/></clipPath><clipPath id="f2866d82d7"><path d="M 284.996094 639.378906 L 317.828125 616.472656 L 328.324219 631.519531 L 295.492188 654.429688 Z M 284.996094 639.378906 " clip-rule="nonzero"/></clipPath><clipPath id="aa499c379d"><path d="M 0.878906 0.320312 L 44.558594 0.320312 L 44.558594 38.480469 L 0.878906 38.480469 Z M 0.878906 0.320312 " clip-rule="nonzero"/></clipPath><clipPath id="2683cde658"><path d="M 0.996094 23.378906 L 33.828125 0.472656 L 44.324219 15.519531 L 11.492188 38.429688 Z M 0.996094 23.378906 " clip-rule="nonzero"/></clipPath><clipPath id="cd6087c5a6"><rect x="0" width="45" y="0" height="39"/></clipPath><clipPath id="6704ee56f5"><path d="M 223.136719 811.691406 L 238.136719 811.691406 L 238.136719 1026.058594 L 223.136719 1026.058594 Z M 223.136719 811.691406 " clip-rule="nonzero"/></clipPath><clipPath id="f063aabeb0"><path d="M 0.136719 0.691406 L 15.136719 0.691406 L 15.136719 215.058594 L 0.136719 215.058594 Z M 0.136719 0.691406 " clip-rule="nonzero"/></clipPath><clipPath id="f7572bb932"><rect x="0" width="16" y="0" height="216"/></clipPath><clipPath id="ecdfdfd2a1"><path d="M 139.925781 869.8125 L 154.925781 869.8125 L 154.925781 1026.058594 L 139.925781 1026.058594 Z M 139.925781 869.8125 " clip-rule="nonzero"/></clipPath><clipPath id="2f78f9b690"><path d="M 0.925781 0.8125 L 15.925781 0.8125 L 15.925781 157.058594 L 0.925781 157.058594 Z M 0.925781 0.8125 " clip-rule="nonzero"/></clipPath><clipPath id="43533abf7f"><rect x="0" width="16" y="0" height="158"/></clipPath><clipPath id="d82a5bd0ab"><path d="M 381.976562 751.148438 L 396.976562 751.148438 L 396.976562 1026.058594 L 381.976562 1026.058594 Z M 381.976562 751.148438 " clip-rule="nonzero"/></clipPath><clipPath id="acdc047e13"><path d="M 0.976562 0.148438 L 15.976562 0.148438 L 15.976562 275.058594 L 0.976562 275.058594 Z M 0.976562 0.148438 " clip-rule="nonzero"/></clipPath><clipPath id="99975c0e3f"><rect x="0" width="16" y="0" height="276"/></clipPath><clipPath id="b20c503272"><path d="M 462.292969 811.691406 L 477.292969 811.691406 L 477.292969 1026.058594 L 462.292969 1026.058594 Z M 462.292969 811.691406 " clip-rule="nonzero"/></clipPath><clipPath id="0f6fe0e83e"><path d="M 0.292969 0.691406 L 15.292969 0.691406 L 15.292969 215.058594 L 0.292969 215.058594 Z M 0.292969 0.691406 " clip-rule="nonzero"/></clipPath><clipPath id="f9e42c6979"><rect x="0" width="16" y="0" height="216"/></clipPath><clipPath id="c4839c06fd"><path d="M 214 798 L 247 798 L 247 825 L 214 825 Z M 214 798 " clip-rule="nonzero"/></clipPath><clipPath id="82d0747276"><path d="M 214.894531 816.136719 L 240.914062 798.199219 L 246.378906 806.128906 L 220.363281 824.066406 Z M 214.894531 816.136719 " clip-rule="nonzero"/></clipPath><clipPath id="bada63ccb5"><path d="M 0.800781 0 L 32.480469 0 L 32.480469 26.160156 L 0.800781 26.160156 Z M 0.800781 0 " clip-rule="nonzero"/></clipPath><clipPath id="05d8ff2d13"><path d="M 0.894531 18.136719 L 26.914062 0.199219 L 32.378906 8.128906 L 6.363281 26.066406 Z M 0.894531 18.136719 " clip-rule="nonzero"/></clipPath><clipPath id="1205cbc3a5"><rect x="0" width="33" y="0" height="27"/></clipPath><clipPath id="3c87bfb353"><path d="M 131 855 L 164 855 L 164 882 L 131 882 Z M 131 855 " clip-rule="nonzero"/></clipPath><clipPath id="444b006873"><path d="M 131.6875 873.722656 L 157.703125 855.785156 L 163.167969 863.710938 L 137.152344 881.648438 Z M 131.6875 873.722656 " clip-rule="nonzero"/></clipPath><clipPath id="78c8075063"><path d="M 0.519531 0.601562 L 32.199219 0.601562 L 32.199219 26.761719 L 0.519531 26.761719 Z M 0.519531 0.601562 " clip-rule="nonzero"/></clipPath><clipPath id="cf8058ad15"><path d="M 0.6875 18.722656 L 26.703125 0.785156 L 32.167969 8.710938 L 6.152344 26.648438 Z M 0.6875 18.722656 " clip-rule="nonzero"/></clipPath><clipPath id="79933ae1a1"><rect x="0" width="33" y="0" height="27"/></clipPath><clipPath id="0e921dedc3"><path d="M 455 796 L 488 796 L 488 825 L 455 825 Z M 455 796 " clip-rule="nonzero"/></clipPath><clipPath id="32f486783a"><path d="M 462.0625 796.84375 L 487.234375 814.453125 L 480.507812 824.070312 L 455.335938 806.457031 Z M 462.0625 796.84375 " clip-rule="nonzero"/></clipPath><clipPath id="e523a0059e"><path d="M 0.28125 0.800781 L 32.441406 0.800781 L 32.441406 28.160156 L 0.28125 28.160156 Z M 0.28125 0.800781 " clip-rule="nonzero"/></clipPath><clipPath id="23d41c9d2e"><path d="M 7.0625 0.84375 L 32.234375 18.453125 L 25.507812 28.070312 L 0.335938 10.457031 Z M 7.0625 0.84375 " clip-rule="nonzero"/></clipPath><clipPath id="413d1ca0f4"><rect x="0" width="33" y="0" height="29"/></clipPath><clipPath id="bccc6e37fa"><path d="M 376 737 L 409 737 L 409 765 L 376 765 Z M 376 737 " clip-rule="nonzero"/></clipPath><clipPath id="e3a53bc7da"><path d="M 383.363281 737.539062 L 408.539062 755.148438 L 401.8125 764.765625 L 376.636719 747.152344 Z M 383.363281 737.539062 " clip-rule="nonzero"/></clipPath><clipPath id="1fca1d4f8d"><path d="M 0.558594 0.519531 L 32.71875 0.519531 L 32.71875 27.878906 L 0.558594 27.878906 Z M 0.558594 0.519531 " clip-rule="nonzero"/></clipPath><clipPath id="28159b0215"><path d="M 7.363281 0.539062 L 32.539062 18.148438 L 25.8125 27.765625 L 0.636719 10.152344 Z M 7.363281 0.539062 " clip-rule="nonzero"/></clipPath><clipPath id="821e2356ee"><rect x="0" width="33" y="0" height="28"/></clipPath><clipPath id="91a6172c93"><path d="M 482 706 L 496 706 L 496 720.816406 L 482 720.816406 Z M 482 706 " clip-rule="nonzero"/></clipPath><clipPath id="b2e99e65cd"><path d="M 481.816406 690.816406 L 496.816406 690.816406 L 496.816406 707 L 481.816406 707 Z M 481.816406 690.816406 " clip-rule="nonzero"/></clipPath><clipPath id="8046ad937f"><path d="M 113.742188 1026.058594 L 506.480469 1026.058594 L 506.480469 1031.996094 L 113.742188 1031.996094 Z M 113.742188 1026.058594 " clip-rule="nonzero"/></clipPath><clipPath id="e68824c25a"><path d="M 0.742188 0.0585938 L 393.480469 0.0585938 L 393.480469 5.996094 L 0.742188 5.996094 Z M 0.742188 0.0585938 " clip-rule="nonzero"/></clipPath><clipPath id="02683042b9"><rect x="0" width="394" y="0" height="6"/></clipPath><clipPath id="fda4f86a72"><path d="M 32.703125 451.300781 L 587.515625 451.300781 L 587.515625 1048.699219 L 32.703125 1048.699219 Z M 32.703125 451.300781 " clip-rule="nonzero"/></clipPath></defs><g transform="matrix(1, 0, 0, 1, 644, 625)"><g clip-path="url(#e490a12b3c)"><g fill="#c19f5d" fill-opacity="1"><g transform="translate(0.574855, 130.134945)"><g><path d="M 84.046875 -17.484375 L 84.046875 0 L 11.15625 0 L 11.15625 -94.140625 L 82.296875 -94.140625 L 82.296875 -76.65625 L 32.8125 -76.65625 L 32.8125 -56.21875 L 76.515625 -56.21875 L 76.515625 -39.265625 L 32.8125 -39.265625 L 32.8125 -17.484375 Z M 84.046875 -17.484375 "/></g></g></g><g fill="#c19f5d" fill-opacity="1"><g transform="translate(103.714148, 130.134945)"><g><path d="M 52.984375 1.609375 C 39.535156 1.609375 29.066406 -2.109375 21.578125 -9.546875 C 14.097656 -16.984375 10.359375 -27.609375 10.359375 -41.421875 L 10.359375 -94.140625 L 32.140625 -94.140625 L 32.140625 -42.234375 C 32.140625 -25.367188 39.132812 -16.9375 53.125 -16.9375 C 59.9375 -16.9375 65.132812 -18.976562 68.71875 -23.0625 C 72.300781 -27.144531 74.09375 -33.535156 74.09375 -42.234375 L 74.09375 -94.140625 L 95.625 -94.140625 L 95.625 -41.421875 C 95.625 -27.609375 91.878906 -16.984375 84.390625 -9.546875 C 76.898438 -2.109375 66.429688 1.609375 52.984375 1.609375 Z M 52.984375 1.609375 "/></g></g></g><g fill="#c19f5d" fill-opacity="1"><g transform="translate(222.5864, 130.134945)"><g><path d="M 71.140625 0 L 52.984375 -26.21875 L 32.953125 -26.21875 L 32.953125 0 L 11.15625 0 L 11.15625 -94.140625 L 51.90625 -94.140625 C 60.25 -94.140625 67.488281 -92.75 73.625 -89.96875 C 79.769531 -87.1875 84.5 -83.238281 87.8125 -78.125 C 91.132812 -73.019531 92.796875 -66.972656 92.796875 -59.984375 C 92.796875 -52.984375 91.113281 -46.953125 87.75 -41.890625 C 84.382812 -36.828125 79.609375 -32.953125 73.421875 -30.265625 L 94.546875 0 Z M 70.734375 -59.984375 C 70.734375 -65.273438 69.03125 -69.332031 65.625 -72.15625 C 62.21875 -74.976562 57.242188 -76.390625 50.703125 -76.390625 L 32.953125 -76.390625 L 32.953125 -43.578125 L 50.703125 -43.578125 C 57.242188 -43.578125 62.21875 -45.007812 65.625 -47.875 C 69.03125 -50.75 70.734375 -54.785156 70.734375 -59.984375 Z M 70.734375 -59.984375 "/></g></g></g><g fill="#c19f5d" fill-opacity="1"><g transform="translate(334.331768, 130.134945)"><g><path d="M 11.15625 -94.140625 L 32.953125 -94.140625 L 32.953125 -17.75 L 80.15625 -17.75 L 80.15625 0 L 11.15625 0 Z M 11.15625 -94.140625 "/></g></g></g><g fill="#c19f5d" fill-opacity="1"><g transform="translate(428.461581, 130.134945)"><g/></g></g><g fill="#c19f5d" fill-opacity="1"><g transform="translate(479.426621, 130.134945)"><g><path d="M 84.046875 -17.484375 L 84.046875 0 L 11.15625 0 L 11.15625 -94.140625 L 82.296875 -94.140625 L 82.296875 -76.65625 L 32.8125 -76.65625 L 32.8125 -56.21875 L 76.515625 -56.21875 L 76.515625 -39.265625 L 32.8125 -39.265625 L 32.8125 -17.484375 Z M 84.046875 -17.484375 "/></g></g></g><g fill="#c19f5d" fill-opacity="1"><g transform="translate(582.565888, 130.134945)"><g><path d="M 30.65625 -76.390625 L 0.53125 -76.390625 L 0.53125 -94.140625 L 82.578125 -94.140625 L 82.578125 -76.390625 L 52.453125 -76.390625 L 52.453125 0 L 30.65625 0 Z M 30.65625 -76.390625 "/></g></g></g><g fill="#c19f5d" fill-opacity="1"><g transform="translate(678.578298, 130.134945)"><g><path d="M 80.28125 -48.953125 C 85.664062 -47.242188 89.878906 -44.394531 92.921875 -40.40625 C 95.972656 -36.414062 97.5 -31.507812 97.5 -25.6875 C 97.5 -17.4375 94.289062 -11.09375 87.875 -6.65625 C 81.46875 -2.21875 72.125 0 59.84375 0 L 11.15625 0 L 11.15625 -94.140625 L 57.15625 -94.140625 C 68.632812 -94.140625 77.441406 -91.941406 83.578125 -87.546875 C 89.722656 -83.148438 92.796875 -77.1875 92.796875 -69.65625 C 92.796875 -65.082031 91.695312 -61.003906 89.5 -57.421875 C 87.300781 -53.835938 84.226562 -51.015625 80.28125 -48.953125 Z M 32.8125 -77.734375 L 32.8125 -55.546875 L 54.46875 -55.546875 C 59.84375 -55.546875 63.921875 -56.484375 66.703125 -58.359375 C 69.484375 -60.242188 70.875 -63.023438 70.875 -66.703125 C 70.875 -70.378906 69.484375 -73.132812 66.703125 -74.96875 C 63.921875 -76.8125 59.84375 -77.734375 54.46875 -77.734375 Z M 58.234375 -16.40625 C 63.972656 -16.40625 68.296875 -17.347656 71.203125 -19.234375 C 74.117188 -21.117188 75.578125 -24.03125 75.578125 -27.96875 C 75.578125 -35.769531 69.796875 -39.671875 58.234375 -39.671875 L 32.8125 -39.671875 L 32.8125 -16.40625 Z M 58.234375 -16.40625 "/></g></g></g></g></g><path stroke-linecap="butt" transform="matrix(0.75, 0, 0, 0.75, 1348.999141, 846.366939)" fill="none" stroke-linejoin="miter" d="M 0.00114513 5.000332 L 63.850109 5.000332 " stroke="#1e243c" stroke-width="10" stroke-opacity="1" stroke-miterlimit="4"/><path stroke-linecap="butt" transform="matrix(0.75, 0, 0, 0.75, 673.157903, 846.366939)" fill="none" stroke-linejoin="miter" d="M -0.00220449 5.000332 L 63.846759 5.000332 " stroke="#1e243c" stroke-width="10" stroke-opacity="1" stroke-miterlimit="4"/><g transform="matrix(1, 0, 0, 1, 749, 818)"><g clip-path="url(#84f2311d72)"><g fill="#1e243c" fill-opacity="1"><g transform="translate(0.94023, 43.731454)"><g><path d="M 0.828125 0 L 10.265625 -28.375 L 16.9375 -28.375 L 25.75 0 L 19.390625 0 L 16.9375 -7.953125 L 7.078125 -7.953125 L 4.5 0 Z M 7.953125 -10.703125 L 16.109375 -10.703125 L 12.21875 -24.046875 L 12.140625 -24.046875 Z M 7.953125 -10.703125 "/></g></g></g><g fill="#1e243c" fill-opacity="1"><g transform="translate(45.163869, 43.731454)"><g><path d="M 14.71875 0.484375 C 10.4375 0.484375 7.175781 -0.800781 4.9375 -3.375 C 2.695312 -5.957031 1.578125 -9.488281 1.578125 -13.96875 C 1.578125 -16.9375 2.082031 -19.539062 3.09375 -21.78125 C 4.113281 -24.019531 5.597656 -25.75 7.546875 -26.96875 C 9.503906 -28.195312 11.820312 -28.8125 14.5 -28.8125 C 15.832031 -28.8125 17.144531 -28.644531 18.4375 -28.3125 C 19.738281 -27.976562 20.859375 -27.613281 21.796875 -27.21875 C 22.742188 -26.820312 23.21875 -26.613281 23.21875 -26.59375 L 22.609375 -23.40625 C 22.410156 -23.519531 21.914062 -23.742188 21.125 -24.078125 C 20.34375 -24.410156 19.40625 -24.734375 18.3125 -25.046875 C 17.21875 -25.367188 16.191406 -25.53125 15.234375 -25.53125 C 13.609375 -25.53125 12.285156 -25.164062 11.265625 -24.4375 C 10.242188 -23.71875 9.476562 -22.523438 8.96875 -20.859375 C 8.457031 -19.203125 8.203125 -16.976562 8.203125 -14.1875 C 8.203125 -10.082031 8.796875 -7.15625 9.984375 -5.40625 C 11.179688 -3.664062 13.035156 -2.796875 15.546875 -2.796875 C 16.941406 -2.796875 18.171875 -3.09375 19.234375 -3.6875 C 20.296875 -4.28125 21.148438 -4.929688 21.796875 -5.640625 C 22.453125 -6.359375 22.78125 -6.765625 22.78125 -6.859375 L 24.703125 -4.765625 C 24.703125 -4.617188 24.316406 -4.09375 23.546875 -3.1875 C 22.773438 -2.28125 21.644531 -1.441406 20.15625 -0.671875 C 18.675781 0.0976562 16.863281 0.484375 14.71875 0.484375 Z M 14.71875 0.484375 "/></g></g></g><g fill="#1e243c" fill-opacity="1"><g transform="translate(89.300478, 43.731454)"><g><path d="M 3.359375 0 L 3.359375 -28.375 L 9.390625 -28.375 L 9.390625 -15.984375 L 19.203125 -15.984375 L 19.203125 -28.375 L 25.234375 -28.375 L 25.234375 0 L 19.203125 0 L 19.203125 -12.921875 L 9.390625 -12.921875 L 9.390625 0 Z M 3.359375 0 "/></g></g></g><g fill="#1e243c" fill-opacity="1"><g transform="translate(136.885599, 43.731454)"><g><path d="M 14.40625 0.484375 C 10.300781 0.484375 7.132812 -0.816406 4.90625 -3.421875 C 2.6875 -6.023438 1.578125 -9.597656 1.578125 -14.140625 C 1.578125 -18.679688 2.6875 -22.257812 4.90625 -24.875 C 7.132812 -27.5 10.300781 -28.8125 14.40625 -28.8125 C 18.539062 -28.8125 21.734375 -27.492188 23.984375 -24.859375 C 26.242188 -22.222656 27.375 -18.648438 27.375 -14.140625 C 27.375 -9.628906 26.242188 -6.0625 23.984375 -3.4375 C 21.734375 -0.820312 18.539062 0.484375 14.40625 0.484375 Z M 14.40625 -2.625 C 16.644531 -2.625 18.25 -3.53125 19.21875 -5.34375 C 20.195312 -7.164062 20.6875 -10.097656 20.6875 -14.140625 C 20.6875 -18.160156 20.191406 -21.085938 19.203125 -22.921875 C 18.210938 -24.753906 16.613281 -25.671875 14.40625 -25.671875 C 12.21875 -25.671875 10.632812 -24.753906 9.65625 -22.921875 C 8.6875 -21.085938 8.203125 -18.160156 8.203125 -14.140625 C 8.203125 -10.097656 8.679688 -7.164062 9.640625 -5.34375 C 10.609375 -3.53125 12.195312 -2.625 14.40625 -2.625 Z M 14.40625 -2.625 "/></g></g></g><g fill="#1e243c" fill-opacity="1"><g transform="translate(184.819931, 43.731454)"><g><path d="M 13.40625 0.484375 C 9.96875 0.484375 7.367188 -0.457031 5.609375 -2.34375 C 3.847656 -4.238281 2.96875 -6.890625 2.96875 -10.296875 L 2.96875 -28.375 L 9.03125 -28.375 L 9.03125 -11.65625 C 9.03125 -8.507812 9.457031 -6.253906 10.3125 -4.890625 C 11.175781 -3.523438 12.523438 -2.84375 14.359375 -2.84375 C 16.304688 -2.84375 17.742188 -3.550781 18.671875 -4.96875 C 19.609375 -6.394531 20.078125 -8.625 20.078125 -11.65625 L 20.078125 -28.375 L 23.796875 -28.375 L 23.796875 -10.296875 C 23.796875 -6.867188 22.976562 -4.210938 21.34375 -2.328125 C 19.71875 -0.453125 17.070312 0.484375 13.40625 0.484375 Z M 13.40625 0.484375 "/></g></g></g><g fill="#1e243c" fill-opacity="1"><g transform="translate(230.615305, 43.731454)"><g><path d="M 3.359375 -28.375 L 12.09375 -28.375 C 15.289062 -28.375 17.789062 -27.59375 19.59375 -26.03125 C 21.40625 -24.476562 22.3125 -22.289062 22.3125 -19.46875 C 22.3125 -17.632812 21.859375 -16.039062 20.953125 -14.6875 C 20.054688 -13.332031 18.878906 -12.28125 17.421875 -11.53125 L 23.96875 0 L 17.03125 0 L 11.703125 -10.296875 L 9.390625 -10.296875 L 9.390625 0 L 3.359375 0 Z M 11.609375 -13.1875 C 12.691406 -13.1875 13.53125 -13.367188 14.125 -13.734375 C 14.71875 -14.097656 15.144531 -14.710938 15.40625 -15.578125 C 15.664062 -16.453125 15.796875 -17.660156 15.796875 -19.203125 C 15.796875 -21.472656 15.46875 -23.09375 14.8125 -24.0625 C 14.164062 -25.039062 13.054688 -25.53125 11.484375 -25.53125 L 9.390625 -25.53125 L 9.390625 -13.1875 Z M 11.609375 -13.1875 "/></g></g></g><g fill="#1e243c" fill-opacity="1"><g transform="translate(274.839231, 43.731454)"><g><path d="M 3.359375 0 L 3.359375 -28.375 L 9.390625 -28.375 L 9.390625 0 Z M 3.359375 0 "/></g></g></g><g fill="#1e243c" fill-opacity="1"><g transform="translate(306.622329, 43.731454)"><g/></g></g><g fill="#1e243c" fill-opacity="1"><g transform="translate(336.746647, 43.731454)"><g><path d="M 8.25 0 L 8.25 -25.234375 L 0.609375 -25.234375 L 0.609375 -28.375 L 21.921875 -28.375 L 21.921875 -25.234375 L 14.3125 -25.234375 L 14.3125 0 Z M 8.25 0 "/></g></g></g><g fill="#1e243c" fill-opacity="1"><g transform="translate(378.264134, 43.731454)"><g><path d="M 14.40625 0.484375 C 10.300781 0.484375 7.132812 -0.816406 4.90625 -3.421875 C 2.6875 -6.023438 1.578125 -9.597656 1.578125 -14.140625 C 1.578125 -18.679688 2.6875 -22.257812 4.90625 -24.875 C 7.132812 -27.5 10.300781 -28.8125 14.40625 -28.8125 C 18.539062 -28.8125 21.734375 -27.492188 23.984375 -24.859375 C 26.242188 -22.222656 27.375 -18.648438 27.375 -14.140625 C 27.375 -9.628906 26.242188 -6.0625 23.984375 -3.4375 C 21.734375 -0.820312 18.539062 0.484375 14.40625 0.484375 Z M 14.40625 -2.625 C 16.644531 -2.625 18.25 -3.53125 19.21875 -5.34375 C 20.195312 -7.164062 20.6875 -10.097656 20.6875 -14.140625 C 20.6875 -18.160156 20.191406 -21.085938 19.203125 -22.921875 C 18.210938 -24.753906 16.613281 -25.671875 14.40625 -25.671875 C 12.21875 -25.671875 10.632812 -24.753906 9.65625 -22.921875 C 8.6875 -21.085938 8.203125 -18.160156 8.203125 -14.140625 C 8.203125 -10.097656 8.679688 -7.164062 9.640625 -5.34375 C 10.609375 -3.53125 12.195312 -2.625 14.40625 -2.625 Z M 14.40625 -2.625 "/></g></g></g><g fill="#1e243c" fill-opacity="1"><g transform="translate(426.198479, 43.731454)"><g><path d="M 13.40625 0.484375 C 9.96875 0.484375 7.367188 -0.457031 5.609375 -2.34375 C 3.847656 -4.238281 2.96875 -6.890625 2.96875 -10.296875 L 2.96875 -28.375 L 9.03125 -28.375 L 9.03125 -11.65625 C 9.03125 -8.507812 9.457031 -6.253906 10.3125 -4.890625 C 11.175781 -3.523438 12.523438 -2.84375 14.359375 -2.84375 C 16.304688 -2.84375 17.742188 -3.550781 18.671875 -4.96875 C 19.609375 -6.394531 20.078125 -8.625 20.078125 -11.65625 L 20.078125 -28.375 L 23.796875 -28.375 L 23.796875 -10.296875 C 23.796875 -6.867188 22.976562 -4.210938 21.34375 -2.328125 C 19.71875 -0.453125 17.070312 0.484375 13.40625 0.484375 Z M 13.40625 0.484375 "/></g></g></g><g fill="#1e243c" fill-opacity="1"><g transform="translate(471.993854, 43.731454)"><g><path d="M 3.359375 0 L 3.359375 -28.375 L 20.609375 -28.375 L 20.609375 -25.234375 L 9.390625 -25.234375 L 9.390625 -14.75 L 19.171875 -14.75 L 19.171875 -11.703125 L 9.390625 -11.703125 L 9.390625 0 Z M 3.359375 0 "/></g></g></g><g fill="#1e243c" fill-opacity="1"><g transform="translate(512.289103, 43.731454)"><g><path d="M 3.359375 0 L 3.359375 -28.375 L 9.390625 -28.375 L 9.390625 0 Z M 3.359375 0 "/></g></g></g><g fill="#1e243c" fill-opacity="1"><g transform="translate(544.0722, 43.731454)"><g><path d="M 3.359375 0 L 3.359375 -28.375 L 9.390625 -28.375 L 9.390625 -15.234375 L 11.96875 -17.109375 L 20.296875 -28.375 L 24.484375 -28.375 L 15.890625 -17.28125 L 26.5 0 L 18.859375 0 L 11.265625 -12.75 L 9.390625 -11.4375 L 9.390625 0 Z M 3.359375 0 "/></g></g></g></g></g><g clip-path="url(#67f9a4c628)"><g transform="matrix(1, 0, 0, 1, 352, 668)"><g clip-path="url(#fd703cadea)"><g clip-path="url(#1a6eafbd0b)"><path fill="#c19f5d" d="M 0.714844 0.5625 L 59.238281 0.5625 L 59.238281 358.09375 L 0.714844 358.09375 Z M 0.714844 0.5625 " fill-opacity="1" fill-rule="nonzero"/></g></g></g></g><g clip-path="url(#8646ec2d03)"><g transform="matrix(1, 0, 0, 1, 208, 756)"><g clip-path="url(#73317a7caf)"><g clip-path="url(#6ccf067ad8)"><path fill="#c19f5d" d="M 0.875 0.851562 L 59.394531 0.851562 L 59.394531 269.460938 L 0.875 269.460938 Z M 0.875 0.851562 " fill-opacity="1" fill-rule="nonzero"/></g></g></g></g><g clip-path="url(#a2da5823aa)"><g transform="matrix(1, 0, 0, 1, 128, 819)"><g clip-path="url(#6bf746f395)"><g clip-path="url(#227db356f4)"><path fill="#c19f5d" d="M 0.808594 0.339844 L 59.332031 0.339844 L 59.332031 206.996094 L 0.808594 206.996094 Z M 0.808594 0.339844 " fill-opacity="1" fill-rule="nonzero"/></g></g></g></g><g clip-path="url(#5aeed041f8)"><g transform="matrix(1, 0, 0, 1, 432, 711)"><g clip-path="url(#33dcf5000f)"><g clip-path="url(#71cd02735e)"><path fill="#c19f5d" d="M 0.78125 0.378906 L 59.300781 0.378906 L 59.300781 315.164062 L 0.78125 315.164062 Z M 0.78125 0.378906 " fill-opacity="1" fill-rule="nonzero"/></g></g></g></g><g clip-path="url(#27e827e6bc)"><g clip-path="url(#36059051cd)"><g transform="matrix(1, 0, 0, 1, 335, 600)"><g clip-path="url(#515c973e7e)"><g clip-path="url(#225cdcd9ec)"><g clip-path="url(#06c6b61cb8)"><path fill="#ffffff" d="M 62.457031 0.617188 L 231.972656 119.207031 L 170.265625 207.410156 L 0.753906 88.820312 Z M 62.457031 0.617188 " fill-opacity="1" fill-rule="nonzero"/></g></g></g></g></g></g><g clip-path="url(#a2b0bba7b9)"><g clip-path="url(#1210913ae2)"><g transform="matrix(1, 0, 0, 1, 48, 678)"><g clip-path="url(#3b0d36424a)"><g clip-path="url(#c573ca235d)"><g clip-path="url(#46ee413a82)"><path fill="#ffffff" d="M 0.835938 115.703125 L 166.003906 0.464844 L 223.847656 83.371094 L 58.683594 198.609375 Z M 0.835938 115.703125 " fill-opacity="1" fill-rule="nonzero"/></g></g></g></g></g></g><g clip-path="url(#a89feeb27e)"><g clip-path="url(#4f5781fa0e)"><g transform="matrix(1, 0, 0, 1, 97, 463)"><g clip-path="url(#f0446c3682)"><g clip-path="url(#d30f88b977)"><g clip-path="url(#3cbfcd666b)"><path fill="#1e243c" d="M 0.261719 298.238281 L 426.296875 0.984375 L 449.6875 34.511719 L 23.652344 331.765625 Z M 0.261719 298.238281 " fill-opacity="1" fill-rule="nonzero"/></g></g></g></g></g></g><g clip-path="url(#c12ef95308)"><g clip-path="url(#8fefa16a0c)"><g transform="matrix(1, 0, 0, 1, 99, 778)"><g clip-path="url(#c4785e0c40)"><g clip-path="url(#36ea5ad36c)"><g clip-path="url(#6b824b7abe)"><path fill="#ffffff" d="M 0.8125 26.839844 L 5.507812 0.390625 L 40.949219 6.679688 L 36.253906 33.128906 Z M 0.8125 26.839844 " fill-opacity="1" fill-rule="nonzero"/></g></g></g></g></g></g><g clip-path="url(#432fa46a8f)"><g clip-path="url(#d08070bce4)"><g transform="matrix(1, 0, 0, 1, 166, 735)"><g clip-path="url(#793cdf80f3)"><g clip-path="url(#caf9e30e3b)"><g clip-path="url(#6a8af51dd7)"><path fill="#ffffff" d="M 25.515625 43.386719 L 0.335938 34.015625 L 12.890625 0.28125 L 38.070312 9.652344 Z M 25.515625 43.386719 " fill-opacity="1" fill-rule="nonzero"/></g></g></g></g></g></g><g clip-path="url(#51c462ede3)"><g transform="matrix(1, 0, 0, 1, 274, 668)"><g clip-path="url(#b94b4864f0)"><g clip-path="url(#2bb897e98a)"><path fill="#ffffff" d="M 14.929688 61.453125 L 0.519531 61.453125 L 0.519531 0.542969 L 14.929688 0.542969 Z M 14.929688 61.453125 " fill-opacity="1" fill-rule="nonzero"/></g></g></g></g><g clip-path="url(#9ee761f9a7)"><g clip-path="url(#393b64013a)"><g transform="matrix(1, 0, 0, 1, 178, 480)"><g clip-path="url(#a7c627062f)"><g clip-path="url(#911141defb)"><g clip-path="url(#5a7a14af4c)"><path fill="#ffffff" d="M 0.914062 255.25 L 365.527344 0.855469 L 388.917969 34.382812 L 24.308594 288.777344 Z M 0.914062 255.25 " fill-opacity="1" fill-rule="nonzero"/></g></g></g></g></g></g><g clip-path="url(#0c4fe2930c)"><g transform="matrix(1, 0, 0, 1, 491, 463)"><g clip-path="url(#8a08ab6528)"><g clip-path="url(#360e98ae48)"><path fill="#ffffff" d="M 0.300781 0.953125 L 48.359375 0.953125 L 48.359375 22.425781 L 0.300781 22.425781 Z M 0.300781 0.953125 " fill-opacity="1" fill-rule="nonzero"/></g></g></g></g><g clip-path="url(#d3088711f6)"><g transform="matrix(1, 0, 0, 1, 288, 628)"><g clip-path="url(#5c5fa30d3f)"><g clip-path="url(#dc26338108)"><path fill="#1e243c" d="M 0.9375 0.566406 L 43.171875 0.566406 L 43.171875 397.996094 L 0.9375 397.996094 Z M 0.9375 0.566406 " fill-opacity="1" fill-rule="nonzero"/></g></g></g></g><g clip-path="url(#fa6b280d4f)"><g transform="matrix(1, 0, 0, 1, 297, 640)"><g clip-path="url(#7e0cdfd4c4)"><g clip-path="url(#5e5d52a3ef)"><path fill="#ffffff" d="M 0.847656 0.121094 L 15.847656 0.121094 L 15.847656 386.035156 L 0.847656 386.035156 Z M 0.847656 0.121094 " fill-opacity="1" fill-rule="nonzero"/></g></g></g></g><g clip-path="url(#15bd735767)"><g clip-path="url(#f2866d82d7)"><g transform="matrix(1, 0, 0, 1, 284, 616)"><g clip-path="url(#cd6087c5a6)"><g clip-path="url(#aa499c379d)"><g clip-path="url(#2683cde658)"><path fill="#1e243c" d="M 0.996094 23.378906 L 33.851562 0.453125 L 44.351562 15.503906 L 11.492188 38.429688 Z M 0.996094 23.378906 " fill-opacity="1" fill-rule="nonzero"/></g></g></g></g></g></g><path stroke-linecap="butt" transform="matrix(0.000000001309, -0.75, 0.75, 0.000000001309, 488.399319, 690.94516)" fill="none" stroke-linejoin="miter" d="M -0.000202683 0.998824 L 241.676901 0.998824 " stroke="#1e243c" stroke-width="2" stroke-opacity="1" stroke-miterlimit="4"/><g clip-path="url(#6704ee56f5)"><g transform="matrix(1, 0, 0, 1, 223, 811)"><g clip-path="url(#f7572bb932)"><g clip-path="url(#f063aabeb0)"><path fill="#ffffff" d="M 0.136719 0.691406 L 15.136719 0.691406 L 15.136719 215.066406 L 0.136719 215.066406 Z M 0.136719 0.691406 " fill-opacity="1" fill-rule="nonzero"/></g></g></g></g><g clip-path="url(#ecdfdfd2a1)"><g transform="matrix(1, 0, 0, 1, 139, 869)"><g clip-path="url(#43533abf7f)"><g clip-path="url(#2f78f9b690)"><path fill="#ffffff" d="M 0.925781 0.8125 L 15.925781 0.8125 L 15.925781 157.066406 L 0.925781 157.066406 Z M 0.925781 0.8125 " fill-opacity="1" fill-rule="nonzero"/></g></g></g></g><g clip-path="url(#d82a5bd0ab)"><g transform="matrix(1, 0, 0, 1, 381, 751)"><g clip-path="url(#99975c0e3f)"><g clip-path="url(#acdc047e13)"><path fill="#ffffff" d="M 0.976562 0.148438 L 15.976562 0.148438 L 15.976562 275.042969 L 0.976562 275.042969 Z M 0.976562 0.148438 " fill-opacity="1" fill-rule="nonzero"/></g></g></g></g><g clip-path="url(#b20c503272)"><g transform="matrix(1, 0, 0, 1, 462, 811)"><g clip-path="url(#f9e42c6979)"><g clip-path="url(#0f6fe0e83e)"><path fill="#ffffff" d="M 0.292969 0.691406 L 15.292969 0.691406 L 15.292969 215.066406 L 0.292969 215.066406 Z M 0.292969 0.691406 " fill-opacity="1" fill-rule="nonzero"/></g></g></g></g><path stroke-linecap="butt" transform="matrix(0.75, 0, 0, 0.75, 100.737262, 1018.321068)" fill="none" stroke-linejoin="miter" d="M 0.00135864 12.498993 L 558.329532 12.498993 " stroke="#1e243c" stroke-width="25" stroke-opacity="1" stroke-miterlimit="4"/><g clip-path="url(#c4839c06fd)"><g clip-path="url(#82d0747276)"><g transform="matrix(1, 0, 0, 1, 214, 798)"><g clip-path="url(#1205cbc3a5)"><g clip-path="url(#bada63ccb5)"><g clip-path="url(#05d8ff2d13)"><path fill="#c19f5d" d="M 0.894531 18.136719 L 26.910156 0.199219 L 32.378906 8.128906 L 6.363281 26.066406 Z M 0.894531 18.136719 " fill-opacity="1" fill-rule="nonzero"/></g></g></g></g></g></g><g clip-path="url(#3c87bfb353)"><g clip-path="url(#444b006873)"><g transform="matrix(1, 0, 0, 1, 131, 855)"><g clip-path="url(#79933ae1a1)"><g clip-path="url(#78c8075063)"><g clip-path="url(#cf8058ad15)"><path fill="#c19f5d" d="M 0.6875 18.722656 L 26.703125 0.785156 L 32.167969 8.714844 L 6.152344 26.648438 Z M 0.6875 18.722656 " fill-opacity="1" fill-rule="nonzero"/></g></g></g></g></g></g><g clip-path="url(#0e921dedc3)"><g clip-path="url(#32f486783a)"><g transform="matrix(1, 0, 0, 1, 455, 796)"><g clip-path="url(#413d1ca0f4)"><g clip-path="url(#e523a0059e)"><g clip-path="url(#23d41c9d2e)"><path fill="#c19f5d" d="M 7.0625 0.84375 L 32.226562 18.449219 L 25.5 28.0625 L 0.335938 10.457031 Z M 7.0625 0.84375 " fill-opacity="1" fill-rule="nonzero"/></g></g></g></g></g></g><g clip-path="url(#bccc6e37fa)"><g clip-path="url(#e3a53bc7da)"><g transform="matrix(1, 0, 0, 1, 376, 737)"><g clip-path="url(#821e2356ee)"><g clip-path="url(#1fca1d4f8d)"><g clip-path="url(#28159b0215)"><path fill="#c19f5d" d="M 7.363281 0.539062 L 32.527344 18.144531 L 25.800781 27.757812 L 0.636719 10.152344 Z M 7.363281 0.539062 " fill-opacity="1" fill-rule="nonzero"/></g></g></g></g></g></g><g clip-path="url(#91a6172c93)"><path fill="#1e243c" d="M 483.476562 712.40625 C 485.28125 712.648438 485.945312 714.789062 486.5625 715.820312 C 487.390625 717.207031 489.089844 717.636719 490.347656 716.757812 C 491.589844 715.894531 491.882812 714.015625 490.765625 712.871094 C 489.828125 711.914062 488.964844 711.007812 488.171875 709.792969 C 487.429688 711.015625 487.027344 712.171875 486.484375 713.398438 C 486.398438 713.589844 486.109375 713.601562 485.980469 713.515625 C 485.855469 713.429688 485.65625 713.25 485.703125 712.964844 L 486.328125 708.960938 C 486.390625 708.582031 486.566406 708.242188 486.949219 708.121094 C 487.777344 707.855469 487.167969 706.902344 487.503906 706.878906 C 488.585938 706.792969 489.578125 706.808594 490.671875 706.863281 C 490.617188 708.824219 492.636719 709.160156 494.136719 710.972656 C 496.292969 713.570312 495.894531 717.492188 493.238281 719.589844 C 491.65625 720.835938 489.589844 721.171875 487.683594 720.648438 C 485.210938 719.964844 483.667969 717.847656 483.554688 715.300781 C 483.519531 714.476562 483.300781 713.761719 482.882812 713.082031 C 482.703125 712.789062 483 712.34375 483.476562 712.40625 Z M 483.476562 712.40625 " fill-opacity="1" fill-rule="nonzero"/></g><g clip-path="url(#b2e99e65cd)"><path fill="#1e243c" d="M 492.191406 705.996094 L 486.226562 706.007812 C 485.707031 706.011719 485.378906 705.671875 485.21875 705.207031 L 481.90625 695.5 C 481.734375 695.003906 481.808594 694.617188 482.082031 694.1875 L 485.238281 689.265625 C 485.425781 688.972656 485.660156 688.628906 486.050781 688.625 L 492.136719 688.609375 C 492.457031 688.605469 492.710938 688.769531 492.875 689.023438 L 496.347656 694.488281 C 496.550781 694.808594 496.472656 695.234375 496.355469 695.578125 L 492.976562 705.421875 C 492.808594 705.679688 492.628906 705.996094 492.191406 705.996094 Z M 490.332031 694.882812 C 490.332031 694.214844 489.789062 693.671875 489.121094 693.671875 C 488.449219 693.671875 487.910156 694.214844 487.910156 694.882812 C 487.910156 695.550781 488.449219 696.09375 489.121094 696.09375 C 489.789062 696.09375 490.332031 695.550781 490.332031 694.882812 Z M 490.324219 702.589844 C 490.324219 701.929688 489.789062 701.394531 489.128906 701.394531 C 488.46875 701.394531 487.933594 701.929688 487.933594 702.589844 C 487.933594 703.25 488.46875 703.785156 489.128906 703.785156 C 489.789062 703.785156 490.324219 703.25 490.324219 702.589844 Z M 490.324219 702.589844 " fill-opacity="1" fill-rule="nonzero"/></g><g clip-path="url(#8046ad937f)"><g transform="matrix(1, 0, 0, 1, 113, 1026)"><g clip-path="url(#02683042b9)"><g clip-path="url(#e68824c25a)"><path fill="#ffffff" d="M 0.742188 0.0585938 L 393.472656 0.0585938 L 393.472656 5.996094 L 0.742188 5.996094 Z M 0.742188 0.0585938 " fill-opacity="1" fill-rule="nonzero"/></g></g></g></g><g clip-path="url(#fda4f86a72)"><path stroke-linecap="butt" transform="matrix(0.75, 0, 0, 0.75, 32.702777, 451.299085)" fill="none" stroke-linejoin="miter" d="M 0.000463876 0.0022615 L 739.750575 0.0022615 L 739.750575 796.533631 L 0.000463876 796.533631 Z M 0.000463876 0.0022615 " stroke="#1e243c" stroke-width="48" stroke-opacity="1" stroke-miterlimit="4"/></g></svg>