<svg xmlns="http://www.w3.org/2000/svg" xmlns:xlink="http://www.w3.org/1999/xlink" width="2000" zoomAndPan="magnify" viewBox="0 0 1500 1499.999933" height="2000" preserveAspectRatio="xMidYMid meet" version="1.0"><defs><g/><clipPath id="90474ed762"><rect x="0" width="638" y="0" height="60"/></clipPath><clipPath id="d59c50f7b6"><rect x="0" width="603" y="0" height="130"/></clipPath><clipPath id="7962518dd2"><path d="M 803.523438 521.585938 L 877.042969 521.585938 L 877.042969 970.703125 L 803.523438 970.703125 Z M 803.523438 521.585938 " clip-rule="nonzero"/></clipPath><clipPath id="780dc4d5a0"><path d="M 0.523438 0.585938 L 74.042969 0.585938 L 74.042969 449.703125 L 0.523438 449.703125 Z M 0.523438 0.585938 " clip-rule="nonzero"/></clipPath><clipPath id="042245cc70"><rect x="0" width="75" y="0" height="450"/></clipPath><clipPath id="10b2ba14b8"><path d="M 622.816406 632.5 L 696.339844 632.5 L 696.339844 969.988281 L 622.816406 969.988281 Z M 622.816406 632.5 " clip-rule="nonzero"/></clipPath><clipPath id="1756b6d5d1"><path d="M 0.816406 0.5 L 74.339844 0.5 L 74.339844 337.988281 L 0.816406 337.988281 Z M 0.816406 0.5 " clip-rule="nonzero"/></clipPath><clipPath id="78def19d2b"><rect x="0" width="75" y="0" height="338"/></clipPath><clipPath id="fd8ec3446d"><path d="M 522.234375 711.003906 L 595.753906 711.003906 L 595.753906 970.703125 L 522.234375 970.703125 Z M 522.234375 711.003906 " clip-rule="nonzero"/></clipPath><clipPath id="81e8a58449"><path d="M 0.234375 0.00390625 L 73.753906 0.00390625 L 73.753906 259.703125 L 0.234375 259.703125 Z M 0.234375 0.00390625 " clip-rule="nonzero"/></clipPath><clipPath id="1fa44a1e61"><rect x="0" width="74" y="0" height="260"/></clipPath><clipPath id="b2ac2b7553"><path d="M 904.109375 575.375 L 977.628906 575.375 L 977.628906 970.703125 L 904.109375 970.703125 Z M 904.109375 575.375 " clip-rule="nonzero"/></clipPath><clipPath id="5ab34fe860"><path d="M 0.109375 0.375 L 73.628906 0.375 L 73.628906 395.703125 L 0.109375 395.703125 Z M 0.109375 0.375 " clip-rule="nonzero"/></clipPath><clipPath id="203c0eefae"><rect x="0" width="74" y="0" height="396"/></clipPath><clipPath id="35b2d396a5"><path d="M 782 436 L 1073 436 L 1073 696 L 782 696 Z M 782 436 " clip-rule="nonzero"/></clipPath><clipPath id="291901e887"><path d="M 859.734375 436.222656 L 1072.578125 585.128906 L 995.058594 695.933594 L 782.214844 547.03125 Z M 859.734375 436.222656 " clip-rule="nonzero"/></clipPath><clipPath id="fb7676793d"><path d="M 0.160156 0.078125 L 290.800781 0.078125 L 290.800781 260 L 0.160156 260 Z M 0.160156 0.078125 " clip-rule="nonzero"/></clipPath><clipPath id="eef3afa28f"><path d="M 77.734375 0.222656 L 290.578125 149.128906 L 213.058594 259.933594 L 0.214844 111.03125 Z M 77.734375 0.222656 " clip-rule="nonzero"/></clipPath><clipPath id="cf414ada7d"><rect x="0" width="291" y="0" height="260"/></clipPath><clipPath id="c6e5c809c1"><path d="M 421 533 L 702 533 L 702 783 L 421 783 Z M 421 533 " clip-rule="nonzero"/></clipPath><clipPath id="35838126f4"><path d="M 421.765625 678.796875 L 629.316406 533.984375 L 701.988281 638.136719 L 494.433594 782.949219 Z M 421.765625 678.796875 " clip-rule="nonzero"/></clipPath><clipPath id="7540130eec"><path d="M 0.679688 1 L 281 1 L 281 250 L 0.679688 250 Z M 0.679688 1 " clip-rule="nonzero"/></clipPath><clipPath id="538399e166"><path d="M 0.765625 145.796875 L 208.316406 0.984375 L 280.988281 105.136719 L 73.433594 249.949219 Z M 0.765625 145.796875 " clip-rule="nonzero"/></clipPath><clipPath id="d914074ca0"><rect x="0" width="281" y="0" height="250"/></clipPath><clipPath id="cf231728f6"><path d="M 482 264 L 1048 264 L 1048 681 L 482 681 Z M 482 264 " clip-rule="nonzero"/></clipPath><clipPath id="fd1d9a86d3"><path d="M 482.597656 638.007812 L 1017.882812 264.535156 L 1047.269531 306.652344 L 511.988281 680.128906 Z M 482.597656 638.007812 " clip-rule="nonzero"/></clipPath><clipPath id="10fd368848"><path d="M 0.398438 0.480469 L 565.359375 0.480469 L 565.359375 416.160156 L 0.398438 416.160156 Z M 0.398438 0.480469 " clip-rule="nonzero"/></clipPath><clipPath id="30e5f4e986"><path d="M 0.597656 374.007812 L 535.882812 0.535156 L 565.269531 42.652344 L 29.988281 416.128906 Z M 0.597656 374.007812 " clip-rule="nonzero"/></clipPath><clipPath id="5bc7a03011"><rect x="0" width="566" y="0" height="417"/></clipPath><clipPath id="5b12d433ea"><path d="M 485 659 L 537 659 L 537 701 L 485 701 Z M 485 659 " clip-rule="nonzero"/></clipPath><clipPath id="ea27fa78b3"><path d="M 485.800781 692.785156 L 491.699219 659.558594 L 536.199219 667.457031 L 530.300781 700.6875 Z M 485.800781 692.785156 " clip-rule="nonzero"/></clipPath><clipPath id="99218091a6"><path d="M 0.761719 0.519531 L 51.398438 0.519531 L 51.398438 41.800781 L 0.761719 41.800781 Z M 0.761719 0.519531 " clip-rule="nonzero"/></clipPath><clipPath id="0fb75acc59"><path d="M 0.800781 33.785156 L 6.699219 0.558594 L 51.199219 8.457031 L 45.300781 41.6875 Z M 0.800781 33.785156 " clip-rule="nonzero"/></clipPath><clipPath id="69a5cbe2d2"><rect x="0" width="52" y="0" height="42"/></clipPath><clipPath id="2bce5834a2"><path d="M 569 605 L 617 605 L 617 660 L 569 660 Z M 569 605 " clip-rule="nonzero"/></clipPath><clipPath id="6b8346329c"><path d="M 601.003906 659.554688 L 569.375 647.785156 L 585.140625 605.425781 L 616.769531 617.199219 Z M 601.003906 659.554688 " clip-rule="nonzero"/></clipPath><clipPath id="d96af6e471"><path d="M 0.28125 0.28125 L 47.800781 0.28125 L 47.800781 54.761719 L 0.28125 54.761719 Z M 0.28125 0.28125 " clip-rule="nonzero"/></clipPath><clipPath id="1d1542ce1e"><path d="M 32.003906 54.554688 L 0.375 42.785156 L 16.140625 0.425781 L 47.769531 12.199219 Z M 32.003906 54.554688 " clip-rule="nonzero"/></clipPath><clipPath id="9996f73b4e"><rect x="0" width="48" y="0" height="55"/></clipPath><clipPath id="0424c4585f"><path d="M 705.285156 521.574219 L 723.390625 521.574219 L 723.390625 598.074219 L 705.285156 598.074219 Z M 705.285156 521.574219 " clip-rule="nonzero"/></clipPath><clipPath id="e1be218009"><path d="M 0.285156 0.574219 L 18.390625 0.574219 L 18.390625 77.074219 L 0.285156 77.074219 Z M 0.285156 0.574219 " clip-rule="nonzero"/></clipPath><clipPath id="2cf1b0277b"><rect x="0" width="19" y="0" height="78"/></clipPath><clipPath id="a2b5dc46f1"><path d="M 585 285 L 1073 285 L 1073 648 L 585 648 Z M 585 285 " clip-rule="nonzero"/></clipPath><clipPath id="7f44dae14c"><path d="M 585.179688 605.363281 L 1043.195312 285.800781 L 1072.582031 327.921875 L 614.570312 647.484375 Z M 585.179688 605.363281 " clip-rule="nonzero"/></clipPath><clipPath id="75f1d2ca64"><path d="M 0.121094 0.601562 L 487.800781 0.601562 L 487.800781 362.519531 L 0.121094 362.519531 Z M 0.121094 0.601562 " clip-rule="nonzero"/></clipPath><clipPath id="0a0512a18b"><path d="M 0.179688 320.363281 L 458.195312 0.800781 L 487.582031 42.921875 L 29.570312 362.484375 Z M 0.179688 320.363281 " clip-rule="nonzero"/></clipPath><clipPath id="1ada2eb24e"><rect x="0" width="488" y="0" height="363"/></clipPath><clipPath id="c29f99a92d"><path d="M 977.628906 264.535156 L 1037.996094 264.535156 L 1037.996094 291.511719 L 977.628906 291.511719 Z M 977.628906 264.535156 " clip-rule="nonzero"/></clipPath><clipPath id="06e53403b0"><path d="M 0.628906 0.535156 L 60.996094 0.535156 L 60.996094 27.511719 L 0.628906 27.511719 Z M 0.628906 0.535156 " clip-rule="nonzero"/></clipPath><clipPath id="9c2402c699"><rect x="0" width="61" y="0" height="28"/></clipPath><clipPath id="23467b9ecd"><path d="M 723.402344 471.335938 L 776.460938 471.335938 L 776.460938 970.703125 L 723.402344 970.703125 Z M 723.402344 471.335938 " clip-rule="nonzero"/></clipPath><clipPath id="ff437fd913"><path d="M 0.402344 0.335938 L 53.460938 0.335938 L 53.460938 499.703125 L 0.402344 499.703125 Z M 0.402344 0.335938 " clip-rule="nonzero"/></clipPath><clipPath id="417b2ca1b4"><rect x="0" width="54" y="0" height="500"/></clipPath><clipPath id="8267f2bd6a"><path d="M 734.597656 485.851562 L 753.4375 485.851562 L 753.4375 970.703125 L 734.597656 970.703125 Z M 734.597656 485.851562 " clip-rule="nonzero"/></clipPath><clipPath id="e7e6ba23a0"><path d="M 0.597656 0.851562 L 19.4375 0.851562 L 19.4375 485.703125 L 0.597656 485.703125 Z M 0.597656 0.851562 " clip-rule="nonzero"/></clipPath><clipPath id="45f32b2fe3"><rect x="0" width="20" y="0" height="486"/></clipPath><clipPath id="eaeb94b32a"><path d="M 718 456 L 773 456 L 773 504 L 718 504 Z M 718 456 " clip-rule="nonzero"/></clipPath><clipPath id="128855d80a"><path d="M 718.445312 484.921875 L 759.691406 456.144531 L 772.878906 475.046875 L 731.632812 503.828125 Z M 718.445312 484.921875 " clip-rule="nonzero"/></clipPath><clipPath id="4c56dfd6de"><path d="M 0.320312 0 L 55 0 L 55 48 L 0.320312 48 Z M 0.320312 0 " clip-rule="nonzero"/></clipPath><clipPath id="9f4d4533bc"><path d="M 0.445312 28.921875 L 41.691406 0.144531 L 54.878906 19.046875 L 13.632812 47.828125 Z M 0.445312 28.921875 " clip-rule="nonzero"/></clipPath><clipPath id="ebc1eefd1f"><rect x="0" width="55" y="0" height="48"/></clipPath><clipPath id="d37ece0090"><path d="M 640.734375 701.394531 L 659.578125 701.394531 L 659.578125 970.703125 L 640.734375 970.703125 Z M 640.734375 701.394531 " clip-rule="nonzero"/></clipPath><clipPath id="21d0fc96f0"><path d="M 0.734375 0.394531 L 19.578125 0.394531 L 19.578125 269.703125 L 0.734375 269.703125 Z M 0.734375 0.394531 " clip-rule="nonzero"/></clipPath><clipPath id="0452dc9490"><rect x="0" width="20" y="0" height="270"/></clipPath><clipPath id="efc0bdd1d5"><path d="M 536.199219 774.410156 L 555.042969 774.410156 L 555.042969 970.703125 L 536.199219 970.703125 Z M 536.199219 774.410156 " clip-rule="nonzero"/></clipPath><clipPath id="b103fb6200"><path d="M 0.199219 0.410156 L 19.042969 0.410156 L 19.042969 196.703125 L 0.199219 196.703125 Z M 0.199219 0.410156 " clip-rule="nonzero"/></clipPath><clipPath id="790b3c8a3e"><rect x="0" width="20" y="0" height="197"/></clipPath><clipPath id="c120a577f6"><path d="M 840.285156 625.335938 L 859.128906 625.335938 L 859.128906 970.703125 L 840.285156 970.703125 Z M 840.285156 625.335938 " clip-rule="nonzero"/></clipPath><clipPath id="a448e09799"><path d="M 0.285156 0.335938 L 19.128906 0.335938 L 19.128906 345.703125 L 0.285156 345.703125 Z M 0.285156 0.335938 " clip-rule="nonzero"/></clipPath><clipPath id="7256a2c0e3"><rect x="0" width="20" y="0" height="346"/></clipPath><clipPath id="bc3d32abf0"><path d="M 941.1875 701.394531 L 960.027344 701.394531 L 960.027344 970.703125 L 941.1875 970.703125 Z M 941.1875 701.394531 " clip-rule="nonzero"/></clipPath><clipPath id="968d7dd881"><path d="M 0.1875 0.394531 L 19.027344 0.394531 L 19.027344 269.703125 L 0.1875 269.703125 Z M 0.1875 0.394531 " clip-rule="nonzero"/></clipPath><clipPath id="69bfe08798"><rect x="0" width="20" y="0" height="270"/></clipPath><clipPath id="fbdd39418d"><path d="M 630 684 L 670 684 L 670 717 L 630 717 Z M 630 684 " clip-rule="nonzero"/></clipPath><clipPath id="2781c64ab5"><path d="M 630.382812 706.980469 L 663.066406 684.445312 L 669.933594 694.40625 L 637.25 716.941406 Z M 630.382812 706.980469 " clip-rule="nonzero"/></clipPath><clipPath id="a823c9c54f"><path d="M 0.238281 0.238281 L 40 0.238281 L 40 33 L 0.238281 33 Z M 0.238281 0.238281 " clip-rule="nonzero"/></clipPath><clipPath id="eda79393c2"><path d="M 0.382812 22.980469 L 33.066406 0.445312 L 39.933594 10.40625 L 7.25 32.941406 Z M 0.382812 22.980469 " clip-rule="nonzero"/></clipPath><clipPath id="3643f3bb3f"><rect x="0" width="40" y="0" height="33"/></clipPath><clipPath id="893a3bf407"><path d="M 525 756 L 566 756 L 566 790 L 525 790 Z M 525 756 " clip-rule="nonzero"/></clipPath><clipPath id="265b4d825e"><path d="M 525.847656 779.324219 L 558.53125 756.789062 L 565.398438 766.75 L 532.714844 789.28125 Z M 525.847656 779.324219 " clip-rule="nonzero"/></clipPath><clipPath id="4c10a8965e"><path d="M 0.839844 0.71875 L 40.441406 0.71875 L 40.441406 33.359375 L 0.839844 33.359375 Z M 0.839844 0.71875 " clip-rule="nonzero"/></clipPath><clipPath id="d5abbb56ac"><path d="M 0.847656 23.324219 L 33.53125 0.789062 L 40.398438 10.75 L 7.714844 33.28125 Z M 0.847656 23.324219 " clip-rule="nonzero"/></clipPath><clipPath id="a9bbf2a4f6"><rect x="0" width="41" y="0" height="34"/></clipPath><clipPath id="2835a9f320"><path d="M 932 682 L 973 682 L 973 717 L 932 717 Z M 932 682 " clip-rule="nonzero"/></clipPath><clipPath id="edb0ab782c"><path d="M 940.890625 682.738281 L 972.515625 704.863281 L 964.066406 716.941406 L 932.441406 694.820312 Z M 940.890625 682.738281 " clip-rule="nonzero"/></clipPath><clipPath id="2fcfbb7b4e"><path d="M 0.398438 0.558594 L 40.71875 0.558594 L 40.71875 35 L 0.398438 35 Z M 0.398438 0.558594 " clip-rule="nonzero"/></clipPath><clipPath id="e2172683ae"><path d="M 8.890625 0.738281 L 40.515625 22.863281 L 32.066406 34.941406 L 0.441406 12.820312 Z M 8.890625 0.738281 " clip-rule="nonzero"/></clipPath><clipPath id="dd5231ec5b"><rect x="0" width="41" y="0" height="35"/></clipPath><clipPath id="b32d645bcd"><path d="M 833 608 L 874 608 L 874 643 L 833 643 Z M 833 608 " clip-rule="nonzero"/></clipPath><clipPath id="612a9be212"><path d="M 842.027344 608.234375 L 873.652344 630.359375 L 865.199219 642.4375 L 833.578125 620.3125 Z M 842.027344 608.234375 " clip-rule="nonzero"/></clipPath><clipPath id="31db45c602"><path d="M 0.519531 0.160156 L 40.839844 0.160156 L 40.839844 34.480469 L 0.519531 34.480469 Z M 0.519531 0.160156 " clip-rule="nonzero"/></clipPath><clipPath id="26dc9e02c5"><path d="M 9.027344 0.234375 L 40.652344 22.359375 L 32.199219 34.4375 L 0.578125 12.3125 Z M 9.027344 0.234375 " clip-rule="nonzero"/></clipPath><clipPath id="704f4a5758"><rect x="0" width="41" y="0" height="35"/></clipPath><clipPath id="23d3f44dae"><path d="M 966 569 L 983 569 L 983 587.039062 L 966 587.039062 Z M 966 569 " clip-rule="nonzero"/></clipPath><clipPath id="23a24daafc"><path d="M 965.710938 549.539062 L 984.460938 549.539062 L 984.460938 569 L 965.710938 569 Z M 965.710938 549.539062 " clip-rule="nonzero"/></clipPath><clipPath id="7c8ebdaa40"><path d="M 503.304688 970.703125 L 996.695312 970.703125 L 996.695312 978.160156 L 503.304688 978.160156 Z M 503.304688 970.703125 " clip-rule="nonzero"/></clipPath><clipPath id="9aed1e63c1"><path d="M 0.304688 0.703125 L 493.695312 0.703125 L 493.695312 8.160156 L 0.304688 8.160156 Z M 0.304688 0.703125 " clip-rule="nonzero"/></clipPath><clipPath id="2095f3394a"><rect x="0" width="494" y="0" height="9"/></clipPath><clipPath id="7ebe5a16f7"><path d="M 401.496094 248.640625 L 1098.246094 248.640625 L 1098.246094 999.136719 L 401.496094 999.136719 Z M 401.496094 248.640625 " clip-rule="nonzero"/></clipPath></defs><path stroke-linecap="butt" transform="matrix(0.75, 0, 0, 0.75, 1087.347132, 1226.591586)" fill="none" stroke-linejoin="miter" d="M 0.000699409 4.497677 L 63.740288 4.497677 " stroke="#1e243c" stroke-width="9" stroke-opacity="1" stroke-miterlimit="4"/><path stroke-linecap="butt" transform="matrix(0.75, 0, 0, 0.75, 364.847404, 1226.591586)" fill="none" stroke-linejoin="miter" d="M 0.000335901 4.497677 L 63.739925 4.497677 " stroke="#1e243c" stroke-width="9" stroke-opacity="1" stroke-miterlimit="4"/><g transform="matrix(1, 0, 0, 1, 441, 1193)"><g clip-path="url(#90474ed762)"><g fill="#1e243c" fill-opacity="1"><g transform="translate(1.057057, 47.078007)"><g><path d="M 0.890625 0 L 11.078125 -30.65625 L 18.296875 -30.65625 L 27.828125 0 L 20.9375 0 L 18.296875 -8.578125 L 7.640625 -8.578125 L 4.859375 0 Z M 8.578125 -11.546875 L 17.40625 -11.546875 L 13.203125 -25.984375 L 13.109375 -25.984375 Z M 8.578125 -11.546875 "/></g></g></g><g fill="#1e243c" fill-opacity="1"><g transform="translate(48.825773, 47.078007)"><g><path d="M 15.890625 0.515625 C 11.265625 0.515625 7.742188 -0.875 5.328125 -3.65625 C 2.910156 -6.4375 1.703125 -10.25 1.703125 -15.09375 C 1.703125 -18.300781 2.25 -21.113281 3.34375 -23.53125 C 4.445312 -25.945312 6.050781 -27.816406 8.15625 -29.140625 C 10.257812 -30.460938 12.757812 -31.125 15.65625 -31.125 C 17.101562 -31.125 18.523438 -30.941406 19.921875 -30.578125 C 21.316406 -30.210938 22.523438 -29.816406 23.546875 -29.390625 C 24.578125 -28.972656 25.09375 -28.75 25.09375 -28.71875 L 24.421875 -25.28125 C 24.203125 -25.40625 23.664062 -25.644531 22.8125 -26 C 21.96875 -26.363281 20.957031 -26.71875 19.78125 -27.0625 C 18.601562 -27.414062 17.492188 -27.59375 16.453125 -27.59375 C 14.691406 -27.59375 13.257812 -27.195312 12.15625 -26.40625 C 11.0625 -25.625 10.238281 -24.335938 9.6875 -22.546875 C 9.132812 -20.753906 8.859375 -18.347656 8.859375 -15.328125 C 8.859375 -10.890625 9.503906 -7.726562 10.796875 -5.84375 C 12.085938 -3.957031 14.082031 -3.015625 16.78125 -3.015625 C 18.289062 -3.015625 19.617188 -3.335938 20.765625 -3.984375 C 21.921875 -4.628906 22.847656 -5.335938 23.546875 -6.109375 C 24.253906 -6.878906 24.609375 -7.3125 24.609375 -7.40625 L 26.6875 -5.140625 C 26.6875 -4.984375 26.269531 -4.414062 25.4375 -3.4375 C 24.601562 -2.46875 23.382812 -1.566406 21.78125 -0.734375 C 20.175781 0.0976562 18.210938 0.515625 15.890625 0.515625 Z M 15.890625 0.515625 "/></g></g></g><g fill="#1e243c" fill-opacity="1"><g transform="translate(96.500165, 47.078007)"><g><path d="M 3.625 0 L 3.625 -30.65625 L 10.140625 -30.65625 L 10.140625 -17.265625 L 20.75 -17.265625 L 20.75 -30.65625 L 27.25 -30.65625 L 27.25 0 L 20.75 0 L 20.75 -13.953125 L 10.140625 -13.953125 L 10.140625 0 Z M 3.625 0 "/></g></g></g><g fill="#1e243c" fill-opacity="1"><g transform="translate(147.899853, 47.078007)"><g><path d="M 15.5625 0.515625 C 11.125 0.515625 7.703125 -0.890625 5.296875 -3.703125 C 2.898438 -6.515625 1.703125 -10.375 1.703125 -15.28125 C 1.703125 -20.1875 2.898438 -24.050781 5.296875 -26.875 C 7.703125 -29.707031 11.125 -31.125 15.5625 -31.125 C 20.019531 -31.125 23.46875 -29.703125 25.90625 -26.859375 C 28.34375 -24.015625 29.5625 -20.15625 29.5625 -15.28125 C 29.5625 -10.40625 28.34375 -6.550781 25.90625 -3.71875 C 23.46875 -0.894531 20.019531 0.515625 15.5625 0.515625 Z M 15.5625 -2.828125 C 17.976562 -2.828125 19.710938 -3.804688 20.765625 -5.765625 C 21.828125 -7.734375 22.359375 -10.90625 22.359375 -15.28125 C 22.359375 -19.613281 21.820312 -22.769531 20.75 -24.75 C 19.675781 -26.738281 17.945312 -27.734375 15.5625 -27.734375 C 13.207031 -27.734375 11.5 -26.738281 10.4375 -24.75 C 9.382812 -22.769531 8.859375 -19.613281 8.859375 -15.28125 C 8.859375 -10.90625 9.378906 -7.734375 10.421875 -5.765625 C 11.460938 -3.804688 13.175781 -2.828125 15.5625 -2.828125 Z M 15.5625 -2.828125 "/></g></g></g><g fill="#1e243c" fill-opacity="1"><g transform="translate(199.676784, 47.078007)"><g><path d="M 14.484375 0.515625 C 10.765625 0.515625 7.953125 -0.503906 6.046875 -2.546875 C 4.148438 -4.585938 3.203125 -7.445312 3.203125 -11.125 L 3.203125 -30.65625 L 9.765625 -30.65625 L 9.765625 -12.59375 C 9.765625 -9.195312 10.226562 -6.757812 11.15625 -5.28125 C 12.082031 -3.800781 13.535156 -3.0625 15.515625 -3.0625 C 17.617188 -3.0625 19.171875 -3.832031 20.171875 -5.375 C 21.179688 -6.914062 21.6875 -9.320312 21.6875 -12.59375 L 21.6875 -30.65625 L 25.703125 -30.65625 L 25.703125 -11.125 C 25.703125 -7.414062 24.820312 -4.546875 23.0625 -2.515625 C 21.300781 -0.492188 18.441406 0.515625 14.484375 0.515625 Z M 14.484375 0.515625 "/></g></g></g><g fill="#1e243c" fill-opacity="1"><g transform="translate(249.143097, 47.078007)"><g><path d="M 3.625 -30.65625 L 13.0625 -30.65625 C 16.519531 -30.65625 19.222656 -29.8125 21.171875 -28.125 C 23.117188 -26.445312 24.09375 -24.082031 24.09375 -21.03125 C 24.09375 -19.050781 23.601562 -17.328125 22.625 -15.859375 C 21.65625 -14.398438 20.382812 -13.265625 18.8125 -12.453125 L 25.890625 0 L 18.390625 0 L 12.640625 -11.125 L 10.140625 -11.125 L 10.140625 0 L 3.625 0 Z M 12.546875 -14.234375 C 13.703125 -14.234375 14.601562 -14.429688 15.25 -14.828125 C 15.894531 -15.222656 16.359375 -15.890625 16.640625 -16.828125 C 16.929688 -17.773438 17.078125 -19.082031 17.078125 -20.75 C 17.078125 -23.195312 16.722656 -24.945312 16.015625 -26 C 15.304688 -27.0625 14.101562 -27.59375 12.40625 -27.59375 L 10.140625 -27.59375 L 10.140625 -14.234375 Z M 12.546875 -14.234375 "/></g></g></g><g fill="#1e243c" fill-opacity="1"><g transform="translate(296.9118, 47.078007)"><g><path d="M 3.625 0 L 3.625 -30.65625 L 10.140625 -30.65625 L 10.140625 0 Z M 3.625 0 "/></g></g></g><g fill="#1e243c" fill-opacity="1"><g transform="translate(331.241141, 47.078007)"><g/></g></g><g fill="#1e243c" fill-opacity="1"><g transform="translate(363.778574, 47.078007)"><g><path d="M 8.90625 0 L 8.90625 -27.25 L 0.65625 -27.25 L 0.65625 -30.65625 L 23.671875 -30.65625 L 23.671875 -27.25 L 15.46875 -27.25 L 15.46875 0 Z M 8.90625 0 "/></g></g></g><g fill="#1e243c" fill-opacity="1"><g transform="translate(408.623612, 47.078007)"><g><path d="M 15.5625 0.515625 C 11.125 0.515625 7.703125 -0.890625 5.296875 -3.703125 C 2.898438 -6.515625 1.703125 -10.375 1.703125 -15.28125 C 1.703125 -20.1875 2.898438 -24.050781 5.296875 -26.875 C 7.703125 -29.707031 11.125 -31.125 15.5625 -31.125 C 20.019531 -31.125 23.46875 -29.703125 25.90625 -26.859375 C 28.34375 -24.015625 29.5625 -20.15625 29.5625 -15.28125 C 29.5625 -10.40625 28.34375 -6.550781 25.90625 -3.71875 C 23.46875 -0.894531 20.019531 0.515625 15.5625 0.515625 Z M 15.5625 -2.828125 C 17.976562 -2.828125 19.710938 -3.804688 20.765625 -5.765625 C 21.828125 -7.734375 22.359375 -10.90625 22.359375 -15.28125 C 22.359375 -19.613281 21.820312 -22.769531 20.75 -24.75 C 19.675781 -26.738281 17.945312 -27.734375 15.5625 -27.734375 C 13.207031 -27.734375 11.5 -26.738281 10.4375 -24.75 C 9.382812 -22.769531 8.859375 -19.613281 8.859375 -15.28125 C 8.859375 -10.90625 9.378906 -7.734375 10.421875 -5.765625 C 11.460938 -3.804688 13.175781 -2.828125 15.5625 -2.828125 Z M 15.5625 -2.828125 "/></g></g></g><g fill="#1e243c" fill-opacity="1"><g transform="translate(460.400531, 47.078007)"><g><path d="M 14.484375 0.515625 C 10.765625 0.515625 7.953125 -0.503906 6.046875 -2.546875 C 4.148438 -4.585938 3.203125 -7.445312 3.203125 -11.125 L 3.203125 -30.65625 L 9.765625 -30.65625 L 9.765625 -12.59375 C 9.765625 -9.195312 10.226562 -6.757812 11.15625 -5.28125 C 12.082031 -3.800781 13.535156 -3.0625 15.515625 -3.0625 C 17.617188 -3.0625 19.171875 -3.832031 20.171875 -5.375 C 21.179688 -6.914062 21.6875 -9.320312 21.6875 -12.59375 L 21.6875 -30.65625 L 25.703125 -30.65625 L 25.703125 -11.125 C 25.703125 -7.414062 24.820312 -4.546875 23.0625 -2.515625 C 21.300781 -0.492188 18.441406 0.515625 14.484375 0.515625 Z M 14.484375 0.515625 "/></g></g></g><g fill="#1e243c" fill-opacity="1"><g transform="translate(509.866857, 47.078007)"><g><path d="M 3.625 0 L 3.625 -30.65625 L 22.25 -30.65625 L 22.25 -27.25 L 10.140625 -27.25 L 10.140625 -15.9375 L 20.703125 -15.9375 L 20.703125 -12.640625 L 10.140625 -12.640625 L 10.140625 0 Z M 3.625 0 "/></g></g></g><g fill="#1e243c" fill-opacity="1"><g transform="translate(553.391542, 47.078007)"><g><path d="M 3.625 0 L 3.625 -30.65625 L 10.140625 -30.65625 L 10.140625 0 Z M 3.625 0 "/></g></g></g><g fill="#1e243c" fill-opacity="1"><g transform="translate(587.720883, 47.078007)"><g><path d="M 3.625 0 L 3.625 -30.65625 L 10.140625 -30.65625 L 10.140625 -16.453125 L 12.921875 -18.484375 L 21.921875 -30.65625 L 26.453125 -30.65625 L 17.171875 -18.671875 L 28.625 0 L 20.375 0 L 12.171875 -13.765625 L 10.140625 -12.359375 L 10.140625 0 Z M 3.625 0 "/></g></g></g></g></g><g transform="matrix(1, 0, 0, 1, 455, 1036)"><g clip-path="url(#d59c50f7b6)"><g fill="#c19f5d" fill-opacity="1"><g transform="translate(1.219307, 102.383178)"><g><path d="M 66.4375 -13.8125 L 66.4375 0 L 8.828125 0 L 8.828125 -74.40625 L 65.046875 -74.40625 L 65.046875 -60.59375 L 25.9375 -60.59375 L 25.9375 -44.4375 L 60.484375 -44.4375 L 60.484375 -31.03125 L 25.9375 -31.03125 L 25.9375 -13.8125 Z M 66.4375 -13.8125 "/></g></g></g><g fill="#c19f5d" fill-opacity="1"><g transform="translate(79.34887, 102.383178)"><g><path d="M 41.875 1.28125 C 31.25 1.28125 22.976562 -1.660156 17.0625 -7.546875 C 11.144531 -13.429688 8.1875 -21.828125 8.1875 -32.734375 L 8.1875 -74.40625 L 25.40625 -74.40625 L 25.40625 -33.375 C 25.40625 -20.050781 30.929688 -13.390625 41.984375 -13.390625 C 47.367188 -13.390625 51.476562 -15 54.3125 -18.21875 C 57.144531 -21.445312 58.5625 -26.5 58.5625 -33.375 L 58.5625 -74.40625 L 75.578125 -74.40625 L 75.578125 -32.734375 C 75.578125 -21.828125 72.617188 -13.429688 66.703125 -7.546875 C 60.785156 -1.660156 52.507812 1.28125 41.875 1.28125 Z M 41.875 1.28125 "/></g></g></g><g fill="#c19f5d" fill-opacity="1"><g transform="translate(169.915276, 102.383178)"><g><path d="M 56.234375 0 L 41.875 -20.734375 L 26.046875 -20.734375 L 26.046875 0 L 8.828125 0 L 8.828125 -74.40625 L 41.03125 -74.40625 C 47.625 -74.40625 53.347656 -73.304688 58.203125 -71.109375 C 63.054688 -68.910156 66.789062 -65.789062 69.40625 -61.75 C 72.03125 -57.71875 73.34375 -52.9375 73.34375 -47.40625 C 73.34375 -41.882812 72.015625 -37.117188 69.359375 -33.109375 C 66.703125 -29.109375 62.925781 -26.046875 58.03125 -23.921875 L 74.734375 0 Z M 55.90625 -47.40625 C 55.90625 -51.59375 54.554688 -54.800781 51.859375 -57.03125 C 49.171875 -59.257812 45.242188 -60.375 40.078125 -60.375 L 26.046875 -60.375 L 26.046875 -34.4375 L 40.078125 -34.4375 C 45.242188 -34.4375 49.171875 -35.570312 51.859375 -37.84375 C 54.554688 -40.113281 55.90625 -43.300781 55.90625 -47.40625 Z M 55.90625 -47.40625 "/></g></g></g><g fill="#c19f5d" fill-opacity="1"><g transform="translate(254.847885, 102.383178)"><g><path d="M 8.828125 -74.40625 L 26.046875 -74.40625 L 26.046875 -14.03125 L 63.359375 -14.03125 L 63.359375 0 L 8.828125 0 Z M 8.828125 -74.40625 "/></g></g></g><g fill="#c19f5d" fill-opacity="1"><g transform="translate(325.855517, 102.383178)"><g/></g></g><g fill="#c19f5d" fill-opacity="1"><g transform="translate(362.741519, 102.383178)"><g><path d="M 66.4375 -13.8125 L 66.4375 0 L 8.828125 0 L 8.828125 -74.40625 L 65.046875 -74.40625 L 65.046875 -60.59375 L 25.9375 -60.59375 L 25.9375 -44.4375 L 60.484375 -44.4375 L 60.484375 -31.03125 L 25.9375 -31.03125 L 25.9375 -13.8125 Z M 66.4375 -13.8125 "/></g></g></g><g fill="#c19f5d" fill-opacity="1"><g transform="translate(440.871083, 102.383178)"><g><path d="M 24.234375 -60.375 L 0.421875 -60.375 L 0.421875 -74.40625 L 65.265625 -74.40625 L 65.265625 -60.375 L 41.453125 -60.375 L 41.453125 0 L 24.234375 0 Z M 24.234375 -60.375 "/></g></g></g><g fill="#c19f5d" fill-opacity="1"><g transform="translate(513.366848, 102.383178)"><g><path d="M 63.453125 -38.6875 C 67.710938 -37.34375 71.046875 -35.09375 73.453125 -31.9375 C 75.859375 -28.789062 77.0625 -24.910156 77.0625 -20.296875 C 77.0625 -13.773438 74.523438 -8.757812 69.453125 -5.25 C 64.390625 -1.75 57.003906 0 47.296875 0 L 8.828125 0 L 8.828125 -74.40625 L 45.171875 -74.40625 C 54.242188 -74.40625 61.207031 -72.664062 66.0625 -69.1875 C 70.914062 -65.71875 73.34375 -61.007812 73.34375 -55.0625 C 73.34375 -51.445312 72.472656 -48.222656 70.734375 -45.390625 C 69.003906 -42.554688 66.578125 -40.320312 63.453125 -38.6875 Z M 25.9375 -61.4375 L 25.9375 -43.90625 L 43.046875 -43.90625 C 47.296875 -43.90625 50.519531 -44.644531 52.71875 -46.125 C 54.914062 -47.613281 56.015625 -49.8125 56.015625 -52.71875 C 56.015625 -55.625 54.914062 -57.800781 52.71875 -59.25 C 50.519531 -60.707031 47.296875 -61.4375 43.046875 -61.4375 Z M 46.03125 -12.96875 C 50.5625 -12.96875 53.976562 -13.710938 56.28125 -15.203125 C 58.582031 -16.691406 59.734375 -18.992188 59.734375 -22.109375 C 59.734375 -28.273438 55.164062 -31.359375 46.03125 -31.359375 L 25.9375 -31.359375 L 25.9375 -12.96875 Z M 46.03125 -12.96875 "/></g></g></g></g></g><g clip-path="url(#7962518dd2)"><g transform="matrix(1, 0, 0, 1, 803, 521)"><g clip-path="url(#042245cc70)"><g clip-path="url(#780dc4d5a0)"><path fill="#c19f5d" d="M 0.523438 0.585938 L 74.046875 0.585938 L 74.046875 449.746094 L 0.523438 449.746094 Z M 0.523438 0.585938 " fill-opacity="1" fill-rule="nonzero"/></g></g></g></g><g clip-path="url(#10b2ba14b8)"><g transform="matrix(1, 0, 0, 1, 622, 632)"><g clip-path="url(#78def19d2b)"><g clip-path="url(#1756b6d5d1)"><path fill="#c19f5d" d="M 0.816406 0.5 L 74.339844 0.5 L 74.339844 337.949219 L 0.816406 337.949219 Z M 0.816406 0.5 " fill-opacity="1" fill-rule="nonzero"/></g></g></g></g><g clip-path="url(#fd8ec3446d)"><g transform="matrix(1, 0, 0, 1, 522, 711)"><g clip-path="url(#1fa44a1e61)"><g clip-path="url(#81e8a58449)"><path fill="#c19f5d" d="M 0.234375 0.00390625 L 73.753906 0.00390625 L 73.753906 259.621094 L 0.234375 259.621094 Z M 0.234375 0.00390625 " fill-opacity="1" fill-rule="nonzero"/></g></g></g></g><g clip-path="url(#b2ac2b7553)"><g transform="matrix(1, 0, 0, 1, 904, 575)"><g clip-path="url(#203c0eefae)"><g clip-path="url(#5ab34fe860)"><path fill="#c19f5d" d="M 0.109375 0.375 L 73.628906 0.375 L 73.628906 395.832031 L 0.109375 395.832031 Z M 0.109375 0.375 " fill-opacity="1" fill-rule="nonzero"/></g></g></g></g><g clip-path="url(#35b2d396a5)"><g clip-path="url(#291901e887)"><g transform="matrix(1, 0, 0, 1, 782, 436)"><g clip-path="url(#cf414ada7d)"><g clip-path="url(#fb7676793d)"><g clip-path="url(#eef3afa28f)"><path fill="#ffffff" d="M 77.734375 0.222656 L 290.695312 149.207031 L 213.171875 260.015625 L 0.214844 111.03125 Z M 77.734375 0.222656 " fill-opacity="1" fill-rule="nonzero"/></g></g></g></g></g></g><g clip-path="url(#c6e5c809c1)"><g clip-path="url(#35838126f4)"><g transform="matrix(1, 0, 0, 1, 421, 533)"><g clip-path="url(#d914074ca0)"><g clip-path="url(#7540130eec)"><g clip-path="url(#538399e166)"><path fill="#ffffff" d="M 0.765625 145.796875 L 208.261719 1.023438 L 280.933594 105.175781 L 73.433594 249.949219 Z M 0.765625 145.796875 " fill-opacity="1" fill-rule="nonzero"/></g></g></g></g></g></g><g clip-path="url(#cf231728f6)"><g clip-path="url(#fd1d9a86d3)"><g transform="matrix(1, 0, 0, 1, 482, 264)"><g clip-path="url(#5bc7a03011)"><g clip-path="url(#10fd368848)"><g clip-path="url(#30e5f4e986)"><path fill="#1e243c" d="M 0.597656 374.007812 L 535.820312 0.574219 L 565.210938 42.695312 L 29.988281 416.128906 Z M 0.597656 374.007812 " fill-opacity="1" fill-rule="nonzero"/></g></g></g></g></g></g><g clip-path="url(#5b12d433ea)"><g clip-path="url(#ea27fa78b3)"><g transform="matrix(1, 0, 0, 1, 485, 659)"><g clip-path="url(#69a5cbe2d2)"><g clip-path="url(#99218091a6)"><g clip-path="url(#0fb75acc59)"><path fill="#ffffff" d="M 0.800781 33.785156 L 6.699219 0.558594 L 51.222656 8.460938 L 45.324219 41.691406 Z M 0.800781 33.785156 " fill-opacity="1" fill-rule="nonzero"/></g></g></g></g></g></g><g clip-path="url(#2bce5834a2)"><g clip-path="url(#6b8346329c)"><g transform="matrix(1, 0, 0, 1, 569, 605)"><g clip-path="url(#9996f73b4e)"><g clip-path="url(#d96af6e471)"><g clip-path="url(#1d1542ce1e)"><path fill="#ffffff" d="M 32.003906 54.554688 L 0.375 42.785156 L 16.148438 0.40625 L 47.777344 12.175781 Z M 32.003906 54.554688 " fill-opacity="1" fill-rule="nonzero"/></g></g></g></g></g></g><g clip-path="url(#0424c4585f)"><g transform="matrix(1, 0, 0, 1, 705, 521)"><g clip-path="url(#2cf1b0277b)"><g clip-path="url(#e1be218009)"><path fill="#ffffff" d="M 18.390625 77.074219 L 0.285156 77.074219 L 0.285156 0.554688 L 18.390625 0.554688 Z M 18.390625 77.074219 " fill-opacity="1" fill-rule="nonzero"/></g></g></g></g><g clip-path="url(#a2b5dc46f1)"><g clip-path="url(#7f44dae14c)"><g transform="matrix(1, 0, 0, 1, 585, 285)"><g clip-path="url(#1ada2eb24e)"><g clip-path="url(#75f1d2ca64)"><g clip-path="url(#0a0512a18b)"><path fill="#ffffff" d="M 0.179688 320.363281 L 458.238281 0.769531 L 487.625 42.890625 L 29.570312 362.484375 Z M 0.179688 320.363281 " fill-opacity="1" fill-rule="nonzero"/></g></g></g></g></g></g><g clip-path="url(#c29f99a92d)"><g transform="matrix(1, 0, 0, 1, 977, 264)"><g clip-path="url(#9c2402c699)"><g clip-path="url(#06e53403b0)"><path fill="#ffffff" d="M 0.628906 0.535156 L 61.003906 0.535156 L 61.003906 27.511719 L 0.628906 27.511719 Z M 0.628906 0.535156 " fill-opacity="1" fill-rule="nonzero"/></g></g></g></g><g clip-path="url(#23467b9ecd)"><g transform="matrix(1, 0, 0, 1, 723, 471)"><g clip-path="url(#417b2ca1b4)"><g clip-path="url(#ff437fd913)"><path fill="#1e243c" d="M 0.402344 0.335938 L 53.460938 0.335938 L 53.460938 499.625 L 0.402344 499.625 Z M 0.402344 0.335938 " fill-opacity="1" fill-rule="nonzero"/></g></g></g></g><g clip-path="url(#8267f2bd6a)"><g transform="matrix(1, 0, 0, 1, 734, 485)"><g clip-path="url(#45f32b2fe3)"><g clip-path="url(#e7e6ba23a0)"><path fill="#ffffff" d="M 0.597656 0.851562 L 19.4375 0.851562 L 19.4375 485.671875 L 0.597656 485.671875 Z M 0.597656 0.851562 " fill-opacity="1" fill-rule="nonzero"/></g></g></g></g><g clip-path="url(#eaeb94b32a)"><g clip-path="url(#128855d80a)"><g transform="matrix(1, 0, 0, 1, 718, 456)"><g clip-path="url(#ebc1eefd1f)"><g clip-path="url(#4c56dfd6de)"><g clip-path="url(#9f4d4533bc)"><path fill="#1e243c" d="M 0.445312 28.921875 L 41.722656 0.121094 L 54.914062 19.023438 L 13.632812 47.828125 Z M 0.445312 28.921875 " fill-opacity="1" fill-rule="nonzero"/></g></g></g></g></g></g><path stroke-linecap="butt" transform="matrix(0.000000001309, -0.75, 0.75, 0.000000001309, 973.799469, 549.702365)" fill="none" stroke-linejoin="miter" d="M -0.00101379 1.501749 L 303.613596 1.501749 " stroke="#1e243c" stroke-width="3" stroke-opacity="1" stroke-miterlimit="4"/><g clip-path="url(#d37ece0090)"><g transform="matrix(1, 0, 0, 1, 640, 701)"><g clip-path="url(#0452dc9490)"><g clip-path="url(#21d0fc96f0)"><path fill="#ffffff" d="M 0.734375 0.394531 L 19.578125 0.394531 L 19.578125 269.707031 L 0.734375 269.707031 Z M 0.734375 0.394531 " fill-opacity="1" fill-rule="nonzero"/></g></g></g></g><g clip-path="url(#efc0bdd1d5)"><g transform="matrix(1, 0, 0, 1, 536, 774)"><g clip-path="url(#790b3c8a3e)"><g clip-path="url(#b103fb6200)"><path fill="#ffffff" d="M 0.199219 0.410156 L 19.042969 0.410156 L 19.042969 196.710938 L 0.199219 196.710938 Z M 0.199219 0.410156 " fill-opacity="1" fill-rule="nonzero"/></g></g></g></g><g clip-path="url(#c120a577f6)"><g transform="matrix(1, 0, 0, 1, 840, 625)"><g clip-path="url(#7256a2c0e3)"><g clip-path="url(#a448e09799)"><path fill="#ffffff" d="M 0.285156 0.335938 L 19.128906 0.335938 L 19.128906 345.679688 L 0.285156 345.679688 Z M 0.285156 0.335938 " fill-opacity="1" fill-rule="nonzero"/></g></g></g></g><g clip-path="url(#bc3d32abf0)"><g transform="matrix(1, 0, 0, 1, 941, 701)"><g clip-path="url(#69bfe08798)"><g clip-path="url(#968d7dd881)"><path fill="#ffffff" d="M 0.1875 0.394531 L 19.027344 0.394531 L 19.027344 269.707031 L 0.1875 269.707031 Z M 0.1875 0.394531 " fill-opacity="1" fill-rule="nonzero"/></g></g></g></g><path stroke-linecap="butt" transform="matrix(0.75, 0, 0, 0.75, 486.967263, 961.133345)" fill="none" stroke-linejoin="miter" d="M 0.00198213 15.499291 L 701.418709 15.499291 " stroke="#1e243c" stroke-width="31" stroke-opacity="1" stroke-miterlimit="4"/><g clip-path="url(#fbdd39418d)"><g clip-path="url(#2781c64ab5)"><g transform="matrix(1, 0, 0, 1, 630, 684)"><g clip-path="url(#3643f3bb3f)"><g clip-path="url(#a823c9c54f)"><g clip-path="url(#eda79393c2)"><path fill="#c19f5d" d="M 0.382812 22.980469 L 33.0625 0.445312 L 39.929688 10.40625 L 7.25 32.941406 Z M 0.382812 22.980469 " fill-opacity="1" fill-rule="nonzero"/></g></g></g></g></g></g><g clip-path="url(#893a3bf407)"><g clip-path="url(#265b4d825e)"><g transform="matrix(1, 0, 0, 1, 525, 756)"><g clip-path="url(#a9bbf2a4f6)"><g clip-path="url(#4c10a8965e)"><g clip-path="url(#d5abbb56ac)"><path fill="#c19f5d" d="M 0.847656 23.324219 L 33.527344 0.789062 L 40.394531 10.75 L 7.714844 33.28125 Z M 0.847656 23.324219 " fill-opacity="1" fill-rule="nonzero"/></g></g></g></g></g></g><g clip-path="url(#2835a9f320)"><g clip-path="url(#edb0ab782c)"><g transform="matrix(1, 0, 0, 1, 932, 682)"><g clip-path="url(#dd5231ec5b)"><g clip-path="url(#2fcfbb7b4e)"><g clip-path="url(#e2172683ae)"><path fill="#c19f5d" d="M 8.890625 0.738281 L 40.507812 22.855469 L 32.054688 34.933594 L 0.441406 12.820312 Z M 8.890625 0.738281 " fill-opacity="1" fill-rule="nonzero"/></g></g></g></g></g></g><g clip-path="url(#b32d645bcd)"><g clip-path="url(#612a9be212)"><g transform="matrix(1, 0, 0, 1, 833, 608)"><g clip-path="url(#704f4a5758)"><g clip-path="url(#31db45c602)"><g clip-path="url(#26dc9e02c5)"><path fill="#c19f5d" d="M 9.027344 0.234375 L 40.640625 22.351562 L 32.191406 34.429688 L 0.578125 12.3125 Z M 9.027344 0.234375 " fill-opacity="1" fill-rule="nonzero"/></g></g></g></g></g></g><g clip-path="url(#23d3f44dae)"><path fill="#1e243c" d="M 967.796875 576.664062 C 970.066406 576.96875 970.898438 579.660156 971.675781 580.957031 C 972.714844 582.695312 974.851562 583.234375 976.433594 582.132812 C 977.992188 581.046875 978.363281 578.683594 976.957031 577.246094 C 975.777344 576.042969 974.695312 574.90625 973.699219 573.378906 C 972.765625 574.917969 972.261719 576.371094 971.574219 577.910156 C 971.472656 578.148438 971.105469 578.164062 970.945312 578.054688 C 970.789062 577.949219 970.539062 577.722656 970.597656 577.367188 L 971.382812 572.332031 C 971.460938 571.855469 971.679688 571.433594 972.160156 571.277344 C 973.199219 570.945312 972.4375 569.75 972.859375 569.714844 C 974.21875 569.609375 975.464844 569.628906 976.839844 569.695312 C 976.773438 572.160156 979.308594 572.585938 981.195312 574.859375 C 983.902344 578.125 983.402344 583.050781 980.0625 585.6875 C 978.074219 587.257812 975.484375 587.679688 973.085938 587.019531 C 969.976562 586.164062 968.039062 583.5 967.898438 580.300781 C 967.851562 579.265625 967.578125 578.367188 967.054688 577.511719 C 966.828125 577.140625 967.203125 576.582031 967.796875 576.664062 Z M 967.796875 576.664062 " fill-opacity="1" fill-rule="nonzero"/></g><g clip-path="url(#23a24daafc)"><path fill="#1e243c" d="M 978.75 568.605469 L 971.253906 568.625 C 970.601562 568.625 970.1875 568.199219 969.988281 567.613281 L 965.824219 555.421875 C 965.609375 554.796875 965.703125 554.308594 966.046875 553.773438 L 970.015625 547.582031 C 970.246094 547.21875 970.542969 546.78125 971.035156 546.78125 L 978.679688 546.757812 C 979.082031 546.757812 979.40625 546.964844 979.605469 547.28125 L 983.972656 554.148438 C 984.226562 554.546875 984.128906 555.085938 983.980469 555.515625 L 979.738281 567.886719 C 979.523438 568.210938 979.300781 568.605469 978.75 568.609375 Z M 976.410156 554.644531 C 976.410156 553.804688 975.730469 553.121094 974.890625 553.121094 C 974.046875 553.121094 973.367188 553.804688 973.367188 554.644531 C 973.367188 555.484375 974.046875 556.164062 974.890625 556.164062 C 975.730469 556.164062 976.410156 555.484375 976.410156 554.644531 Z M 976.40625 564.328125 C 976.40625 563.5 975.730469 562.824219 974.902344 562.824219 C 974.070312 562.824219 973.398438 563.5 973.398438 564.328125 C 973.398438 565.160156 974.070312 565.832031 974.902344 565.832031 C 975.730469 565.832031 976.40625 565.160156 976.40625 564.328125 Z M 976.40625 564.328125 " fill-opacity="1" fill-rule="nonzero"/></g><g clip-path="url(#7c8ebdaa40)"><g transform="matrix(1, 0, 0, 1, 503, 970)"><g clip-path="url(#2095f3394a)"><g clip-path="url(#9aed1e63c1)"><path fill="#ffffff" d="M 0.304688 0.703125 L 493.691406 0.703125 L 493.691406 8.160156 L 0.304688 8.160156 Z M 0.304688 0.703125 " fill-opacity="1" fill-rule="nonzero"/></g></g></g></g><g clip-path="url(#7ebe5a16f7)"><path stroke-linecap="butt" transform="matrix(0.75, 0, 0, 0.75, 401.496239, 248.641979)" fill="none" stroke-linejoin="miter" d="M -0.000193357 -0.00180585 L 929.328012 -0.00180585 L 929.328012 1000.659739 L -0.000193357 1000.659739 Z M -0.000193357 -0.00180585 " stroke="#1e243c" stroke-width="48" stroke-opacity="1" stroke-miterlimit="4"/></g></svg>